<?xml version="1.0" encoding="utf-8"?>
<!-- Generator: Adobe Illustrator 22.1.0, SVG Export Plug-In . SVG Version: 6.00 Build 0)  -->
<svg version="1.1" id="Layer_1" xmlns="http://www.w3.org/2000/svg" xmlns:xlink="http://www.w3.org/1999/xlink" x="0px" y="0px"
	 viewBox="0 0 500 500" style="enable-background:new 0 0 500 500;" xml:space="preserve">
<style type="text/css">
	.st0{fill:#D2DEE4;enable-background:new    ;}
	.st1{fill:#FEFEFE;}
	.st2{fill:#DBE5EB;}
	.st3{fill:#125172;}
</style>
<g>
	<path class="st0" d="M502,277c0,0.7,0,1.3,0,2c-1.4,0.2-1.8,1.1-2,2.4c-2.3,20.7-7.4,40.7-14.7,60.2
		c-10.3,27.4-25.4,51.9-44.5,73.8c-2.9,3.3-4.7,8.2-9.8,9.5c0.1-22,0.4-43.9-2.9-65.7c-3.2-20.8-8-41.1-18.2-59.8
		c-9.9-18-23.6-31.6-43.8-37.7c-13.9-4.1-26.7-4.6-39,5.3c-8.5,6.8-18.1,12.4-28.3,16.7c-27.6,11.6-55.5,13.7-84.1,3.7
		c-15.5-5.4-28.9-14.3-42.4-23c-3.6-2.3-6.9-5.4-11.5-5.6c-16.8-0.6-32,4-45.2,14.3c-17,13.3-26.1,31.7-32.2,51.7
		c-10.1,33-11.9,66.9-9.4,101.2c-2-0.3-3.1-1.9-4.3-3.2c-15.9-16.5-29.1-35.1-39.6-55.4c-22.7-44-31.4-90.7-27-140
		c1.6-17.1,4.8-33.9,10-50.2c16.1-50.6,45-92.6,87.4-124.6C142.8,20.5,190.8,2.8,244.6,2c1.7,0,3.9,0.8,4.4-2c1.7,0,3.3,0,5,0
		c0.6,2.7,2.8,2,4.4,2c9-0.2,17.8,0.8,26.8,1.9c26.3,3.2,51.3,11,75.1,22.4c34.2,16.4,63.1,39.7,86.9,69.4
		c29.5,36.8,47,78.7,52.9,125.5c0.2,1.4,0.2,2.7,2,2.9c0,0.7,0,1.3,0,2c-1.6,3.3-1.5,6.7,0,10c0,10.7,0,21.3,0,32
		C500.5,271,500.4,274,502,277z M349.2,177c2.8-51.9-45.6-96.8-94.9-97.8c-54-1-99.7,44-100.6,96.2c-0.9,54.4,44.7,99.1,96.5,99.8
		C306.2,276.1,351.9,228,349.2,177z"/>
	<path class="st1" d="M249,0c-0.6,2.7-2.8,1.9-4.4,2c-53.7,0.9-101.8,18.6-144.3,50.7c-42.4,32-71.3,73.9-87.4,124.6
		c-5.2,16.3-8.4,33-10,50.2c-4.5,49.3,4.3,96.1,27,140c10.5,20.3,23.6,38.9,39.6,55.4c1.2,1.3,2.3,2.9,4.3,3.2
		c4.1,3.9,8.2,7.9,12.4,11.8c0,1.9,1.3,2.1,2.7,2.2c1.4,0.6,2.4,1.6,3.2,2.8c0.1,2.5,1.7,3.1,3.9,3.1c0.4,0.3,0.7,0.6,1.1,0.9
		c0.1,2.6,1.8,3.2,4,3l0,0c0.2,2.5,1.8,3.1,4,3l0,0c0.1,1.9,1.5,2.1,2.9,2.1c0.4,0.3,0.7,0.6,1.1,0.9c0.1,2.1,1.4,2.2,3,2l0,0
		c0.1,2,1.5,2.1,3,2l0,0c1.5,3.5,4.4,4.8,8,5l0,0c0,1.9,1.6,2.3,2.9,3.1c9.7,5.8,19.9,10.8,30.4,15.1c19.1,7.7,38.8,13.6,59.4,16.2
		c2.7,0.3,6.5-1,8.3,2.8c-73.3,0-146.7,0-220,0.1c-3.4,0-4.1-0.7-4.1-4.1C0,333.3,0,168.7-0.1,4c0-3.4,0.7-4.1,4.1-4.1
		C85.7,0,167.3,0,249,0z"/>
	<path class="st1" d="M502,224c-1.8-0.2-1.8-1.5-2-2.9c-5.8-46.8-23.4-88.7-52.9-125.5c-23.7-29.7-52.7-52.9-86.9-69.4
		C336.4,14.8,311.5,7,285.1,3.8c-8.9-1.1-17.8-2.1-26.8-1.9c-1.7,0-3.9,0.7-4.4-2c81.3,0,162.7,0,244-0.1c3.4,0,4.1,0.7,4.1,4.1
		C502,77.3,502,150.7,502,224z"/>
	<path class="st1" d="M431,425c5-1.3,6.9-6.1,9.8-9.5c19.2-21.9,34.2-46.5,44.5-73.8c7.4-19.5,12.5-39.5,14.7-60.2
		c0.1-1.3,0.6-2.2,2-2.4c0,73,0,146,0.1,219c0,3.4-0.7,4.1-4.1,4.1c-73-0.1-146-0.1-219-0.1c2.3-4,6.6-2.2,9.8-2.7
		c33.9-5.2,65.3-16.8,94.6-34.6c1.5-0.9,3.5-1.5,3.6-3.8l0,0c1.5,0.1,2.9,0,3-2l0,0c1.5,0.1,2.9,0,3-2l0,0c2.2,0.2,3.8-0.4,4.1-2.9
		l0,0c1.5,0,2.9-0.1,2.9-2.1c0.4-0.3,0.7-0.6,1.1-0.9c1.5,0,2.8-0.2,2.9-2.1c0.4-0.3,0.7-0.6,1.1-0.9c1.5,0,2.9-0.2,2.9-2.2
		c0.8-1.2,1.9-2.2,3.3-2.8c1.4-0.1,2.8-0.3,2.7-2.2c1.5-1.9,3.2-3.5,5.3-4.8c1.4-0.1,2.7-0.4,2.7-2.2
		C424.9,430.9,427.9,427.9,431,425z"/>
	<path class="st2" d="M386.9,460.9c-0.1,2.3-2.1,2.9-3.6,3.8c-29.2,17.8-60.7,29.4-94.6,34.6c-3.2,0.5-7.5-1.3-9.8,2.7
		c-0.7,0-1.3,0-2,0c-3.3-1.6-6.7-1.5-10,0c-10.3,0-20.7,0-31,0c-3-1.5-6-1.6-9,0c-1,0-2,0-3,0c-1.8-3.8-5.6-2.4-8.3-2.8
		c-20.6-2.6-40.3-8.5-59.4-16.2c-10.5-4.2-20.6-9.3-30.4-15.1c-1.2-0.7-2.9-1.1-2.9-3.1c2.2,0.3,4,1.7,5.8,2.7
		c36.5,20.7,75.9,31,117.7,32.2c14,0.4,27.9-0.8,41.8-2.8c28.6-4.1,55.7-12.9,81.1-26.7C375.3,467.3,381.1,464.1,386.9,460.9z"/>
	<path class="st1" d="M502,236c-1.5-3.3-1.6-6.7,0-10C502,229.3,502,232.7,502,236z"/>
	<path class="st1" d="M267,502c3.3-1.5,6.7-1.6,10,0C273.7,502,270.3,502,267,502z"/>
	<path class="st1" d="M502,277c-1.6-3-1.5-6,0-9C502,271,502,274,502,277z"/>
	<path class="st1" d="M227,502c3-1.6,6-1.5,9,0C233,502,230,502,227,502z"/>
	<path class="st3" d="M386.9,460.9c-5.8,3.2-11.7,6.4-17.5,9.5c-25.4,13.8-52.5,22.6-81.1,26.7c-13.9,2-27.8,3.2-41.8,2.8
		c-41.8-1.2-81.2-11.5-117.7-32.2c-1.9-1.1-3.6-2.4-5.8-2.7l0,0c-2.2-2.4-4.8-4.1-8-5l0,0c-0.6-1.3-1.6-1.9-3-2l0,0
		c-0.6-1.3-1.6-1.9-3-2c-0.4-0.3-0.7-0.6-1.1-0.9c-0.5-1.3-1.6-1.9-2.9-2.1l0,0c-0.9-1.6-2.1-2.7-4-3l0,0c-0.9-1.6-2.1-2.7-4-3
		c-0.4-0.3-0.7-0.6-1.1-0.9c-0.8-1.6-2.1-2.7-3.9-3.1c-0.8-1.2-1.9-2.2-3.2-2.8c-0.4-1.4-1.4-2-2.7-2.2c-4.1-3.9-8.2-7.9-12.4-11.8
		c-2.5-34.3-0.8-68.2,9.4-101.2c6.1-20,15.3-38.4,32.2-51.7c13.2-10.3,28.4-14.9,45.2-14.3c4.6,0.2,7.9,3.3,11.5,5.6
		c13.6,8.7,27,17.6,42.4,23c28.7,10,56.5,7.9,84.1-3.7c10.2-4.3,19.8-9.8,28.3-16.7c12.3-9.9,25.2-9.4,39-5.3
		c20.3,6.1,33.9,19.7,43.8,37.7c10.3,18.7,15,39,18.2,59.8c3.4,21.8,3,43.8,2.9,65.7c-3,3-6,5.9-9,8.9c-1.3,0.2-2.3,0.9-2.7,2.2
		c-2.1,1.2-3.8,2.9-5.3,4.8c-1.3,0.2-2.4,0.8-2.7,2.2c-1.4,0.6-2.4,1.6-3.3,2.8c-1.3,0.2-2.3,0.9-2.9,2.2c-0.4,0.3-0.7,0.6-1.1,0.9
		c-1.3,0.2-2.4,0.8-2.9,2.1c-0.4,0.3-0.7,0.6-1.1,0.9c-1.4,0.1-2.4,0.8-2.9,2.1l0,0c-1.9,0.2-3.1,1.4-4.1,2.9l0,0
		c-1.4,0.1-2.4,0.7-3,2l0,0C388.6,459,387.5,459.7,386.9,460.9L386.9,460.9z"/>
	<path class="st3" d="M349.2,177c2.7,50.9-43,99.1-98.9,98.3c-51.8-0.7-97.4-45.4-96.5-99.8c0.8-52.2,46.5-97.2,100.6-96.2
		C303.6,80.2,351.9,125.1,349.2,177z"/>
	<path class="st2" d="M115.1,459.9c3.1,0.9,5.8,2.7,8,5C119.5,464.7,116.6,463.4,115.1,459.9z"/>
	<path class="st2" d="M92,442.9c1.8,0.4,3.1,1.5,3.9,3.1C93.8,446.1,92.1,445.5,92,442.9z"/>
	<path class="st2" d="M97,446.9c1.8,0.4,3.1,1.5,4,3C98.8,450.1,97.2,449.5,97,446.9z"/>
	<path class="st2" d="M101,450c1.9,0.3,3.1,1.4,4,3C102.9,453.1,101.2,452.5,101,450z"/>
	<path class="st2" d="M86.1,437.9c1.4,0.2,2.3,0.8,2.7,2.2C87.4,440,86,439.8,86.1,437.9z"/>
	<path class="st2" d="M105,453c1.4,0.1,2.4,0.8,2.9,2.1C106.5,455.1,105.1,454.9,105,453z"/>
	<path class="st2" d="M109.1,455.9c1.4,0.2,2.4,0.8,3,2C110.5,458.1,109.1,457.9,109.1,455.9z"/>
	<path class="st2" d="M112.1,457.9c1.4,0.1,2.4,0.7,3,2C113.5,460.1,112.1,460,112.1,457.9z"/>
	<path class="st2" d="M392.9,456.9c0.9-1.6,2.2-2.7,4.1-2.9C396.8,456.5,395.1,457.1,392.9,456.9z"/>
	<path class="st2" d="M419.2,436.1c0.4-1.4,1.4-2,2.7-2.2C422,435.8,420.7,436,419.2,436.1z"/>
	<path class="st2" d="M411.2,443.1c0.4-1.4,1.4-2,2.7-2.2C414,442.8,412.6,443,411.2,443.1z"/>
	<path class="st2" d="M405.1,448c0.5-1.3,1.5-1.9,2.9-2.2C407.9,447.9,406.6,448,405.1,448z"/>
	<path class="st2" d="M401.1,451c0.5-1.3,1.5-1.9,2.9-2.1C403.9,450.9,402.6,451.1,401.1,451z"/>
	<path class="st2" d="M397,454c0.6-1.3,1.6-1.9,2.9-2.1C399.9,453.9,398.5,454.1,397,454z"/>
	<path class="st2" d="M389.9,458.9c0.6-1.3,1.6-1.9,3-2C392.9,459,391.5,459.1,389.9,458.9z"/>
	<path class="st2" d="M386.9,460.9c0.6-1.3,1.6-1.9,3-2C389.9,461,388.5,461.1,386.9,460.9z"/>
</g>
</svg>
