<?xml version="1.0" encoding="utf-8"?>
<!-- Generator: Adobe Illustrator 16.0.0, SVG Export Plug-In . SVG Version: 6.00 Build 0)  -->
<!DOCTYPE svg PUBLIC "-//W3C//DTD SVG 1.1//EN" "http://www.w3.org/Graphics/SVG/1.1/DTD/svg11.dtd">
<svg version="1.1" id="Layer_1" xmlns="http://www.w3.org/2000/svg" xmlns:xlink="http://www.w3.org/1999/xlink" x="0px" y="0px"
	 width="128px" height="128px" viewBox="0 0 48 48" enable-background="new 0 0 48 48" xml:space="preserve">
<g id="color_29_">
	<g>
		<path fill="#FFDA8E" d="M45.438,17.096l0.003-0.007l-19-9l-0.003,0.007c-0.13-0.063-0.272-0.104-0.427-0.104
			s-0.297,0.041-0.427,0.104l-0.003-0.007l-19,9l0.003,0.007c-0.336,0.161-0.573,0.499-0.573,0.896v17
			c0,0.397,0.237,0.735,0.573,0.896l-0.003,0.007l20,10l0.003-0.007c0.13,0.063,0.272,0.104,0.427,0.104s0.297-0.041,0.427-0.104
			l0.003,0.007l18-9.001l-0.003-0.006c0.337-0.161,0.573-0.499,0.573-0.896v-18C46.011,17.595,45.775,17.257,45.438,17.096z"/>
	</g>
</g>
<g id="outline_28_">
	<g>
		<path fill="#384D68" d="M3.713,10.673L6.57,7.521c4.736-4.735,9.707-4.721,14.428,0l2.611,2.474l-4.598-0.002
			c-0.534-0.001-1.001,0.475-1,1s0.466,0.999,1,1l7.021,0.003c0.535,0.002,0.98-0.478,0.979-1.003v-7c-0.002-0.525-0.466-0.999-1-1
			s-1.002,0.475-1,1l-0.016,4.713l-2.57-2.589c-5.505-5.505-11.832-5.453-17.284,0L2.285,9.269c-0.395,0.388-0.395,1.017,0,1.404
			S3.319,11.061,3.713,10.673z M45.941,15.646c-0.012-0.034-0.028-0.063-0.045-0.096c-0.037-0.074-0.082-0.141-0.135-0.202
			c-0.024-0.027-0.045-0.057-0.072-0.082c-0.074-0.069-0.156-0.129-0.249-0.174l0.001-0.003L30.435,8.094
			c-0.13-0.062-0.271-0.102-0.424-0.102c-0.553,0-1,0.447-1,1c0,0.725,0.886,1.066,0.798,1.005l-0.173-0.08
			c0.112,0.045,0.155,0.067,0.173,0.08l12.876,5.995l-12.517,5.961l-5.157-2.579v-4.382c0-0.553-0.447-1-1-1c-0.552,0-1,0.447-1,1
			v4.382l-5.157,2.579L5.337,15.993l8.988-4.063c0.396-0.133,0.686-0.495,0.686-0.937c0-0.553-0.448-1-1-1
			c-0.241,0-0.341,0.046-0.341,0.046L2.582,15.089l0.001,0.003c-0.093,0.045-0.175,0.104-0.25,0.174
			c-0.027,0.025-0.047,0.055-0.071,0.082c-0.053,0.062-0.099,0.128-0.136,0.202c-0.016,0.032-0.032,0.062-0.045,0.096
			c-0.041,0.109-0.07,0.224-0.07,0.347v19c0,0.398,0.234,0.739,0.571,0.9l-0.001,0.003l21,10l0.001-0.003
			c0.13,0.062,0.274,0.1,0.429,0.1s0.299-0.038,0.429-0.1l0.001,0.003l21-10l-0.001-0.003c0.337-0.161,0.571-0.502,0.571-0.9v-19
			C46.011,15.87,45.982,15.755,45.941,15.646z M23.011,43.409l-19-9.048V17.577l19,9.048V43.409z M24.011,24.885l-3.866-1.842
			l3.866-1.933l3.866,1.933L24.011,24.885z M44.011,34.361l-19,9.048V26.625l19-9.048V34.361z"/>
	</g>
</g>
</svg>
