<?xml version="1.0" encoding="utf-8"?>
<!-- Generator: Adobe Illustrator 22.1.0, SVG Export Plug-In . SVG Version: 6.00 Build 0)  -->
<svg version="1.1" id="Layer_1" xmlns="http://www.w3.org/2000/svg" xmlns:xlink="http://www.w3.org/1999/xlink" x="0px" y="0px"
	 viewBox="0 0 250 250" style="enable-background:new 0 0 250 250;" xml:space="preserve">
<style type="text/css">
	.st0{fill:none;}
	.st1{fill:#A0011E;}
	.st2{fill:#9F1D22;}
	.st3{fill:#802E27;}
	.st4{fill:#990033;}
	.st5{fill:#A15750;}
	.st6{fill:#FEFEFE;}
</style>
<g>
	<path class="st0" d="M-3,253C-3,169-3,85-3.1,1c0-3.4,0.7-4.1,4.1-4.1C83.7-3,166.3-3,249-3.1c3.4,0,4.1,0.7,4.1,4.1
		c-0.1,82.7-0.1,165.3,0,248c0,3.4-0.7,4.1-4.1,4.1C165,253,81,253-3,253z"/>
	<path class="st1" d="M13.9,59.6C14.2,36.5,32.3,16.7,55.7,14c2.3-0.3,4.5-0.4,6.8-0.6c1-0.1,2.1-0.1,3.1,0c4,0.2,8.1,0,12.1,0.1
		c31.5,0,63,0,94.5,0c4.3-0.1,8.6,0.2,12.9-0.1c0.5,0,1.1-0.1,1.6-0.1c11.9,0.1,22.9,3.7,32,11.2c10.8,8.9,17.4,20.5,17.3,35.1
		c0.9,3.8,0.2,7.7,0.4,11.6c0,34.3,0,68.6,0,102.9c0.1,3.6-0.2,7.3,0.1,10.9c0,0.6,0.1,1.3,0.1,1.9c-0.3,28.4-21.1,49.3-49.7,49.7
		c-0.6,0-1.3,0-1.9-0.1c-4.2-0.3-8.5,0-12.7-0.1c-31.5,0-63,0-94.5,0c-4.2,0.1-8.5-0.2-12.8,0.1c-0.7,0-1.3,0.1-2,0.1
		c-30.7-0.6-47.9-22.8-49.2-44.8c0,0,0,0,0,0c-0.1-1.1-0.1-2.2-0.2-3.3c-0.4-3.1,0.1-6.3-0.1-9.4c0-2.5,0-5.1,0-7.6c0-31,0-62,0-93
		c0-2.5,0-5.1,0-7.6"/>
	<path class="st1" d="M236.8,175c-0.3,0.5-0.5,0.4-0.8,0c0-34.7,0-69.3,0-104c0.3-0.4,0.5-0.5,0.8,0"/>
	<path class="st1" d="M173,14c-32,0-64,0-96,0c-0.3-0.2-0.4-0.4-0.3-0.5c0.1-0.2,0.2-0.3,0.3-0.3c32,0,64,0,96,0
		c0.3,0.2,0.4,0.4,0.3,0.5C173.2,13.9,173.1,14,173,14z"/>
	<path class="st2" d="M77,236c32,0,64,0,96,0c0.3,0.2,0.4,0.4,0.3,0.5c-0.1,0.2-0.2,0.3-0.3,0.3c-32,0-64,0-96,0
		c-0.3-0.2-0.4-0.4-0.3-0.5C76.8,236.1,76.9,236,77,236z"/>
	<path class="st3" d="M77,13.2c0,0.3,0,0.5,0,0.8c-4.3-0.3-8.7,0.8-13-0.6C68.4,13.3,72.7,13.2,77,13.2z"/>
	<path class="st1" d="M173,14c0-0.3,0-0.5,0-0.8c4.3,0.1,8.6,0.1,13,0.2C181.7,14.7,177.3,13.7,173,14z"/>
	<path class="st1" d="M77,236c0,0.3,0,0.5,0,0.8c-4.3-0.1-8.6-0.1-13-0.2C68.3,235.3,72.7,236.3,77,236z"/>
	<path class="st1" d="M173,236.8c0-0.3,0-0.5,0-0.8c4.3,0.3,8.7-0.8,13,0.6C181.6,236.7,177.3,236.8,173,236.8z"/>
	<path class="st1" d="M236.1,59.6"/>
	<path class="st1" d="M236.8,71c-0.3,0-0.5,0-0.8,0"/>
	<path class="st4" d="M236,175c0.3,0,0.5,0,0.8,0c-0.1,3.7-0.1,7.3-0.2,11C235.3,182.4,236.3,178.6,236,175z"/>
	<path class="st5" d="M13.2,71c0.3,0,0.6,0,0.8,0"/>
	<path class="st5" d="M14,78c-0.3,0-0.6,0-0.8,0"/>
	<path class="st6" d="M123.7,59.7c27.1-0.1,44.7,24.3,36.6,49.3c-2.5,7.5-6.5,14.2-10.8,20.8c-11.3,17.3-19,35.8-21.2,56.5
		c-0.1,1-0.1,2.1-0.5,2.9c-0.7,1.3-1.5,2.7-3.2,2.7c-1.6,0-2.2-1.7-2.5-2.7c-0.8-3.2-1.2-6.5-1.7-9.8c-2.3-15.4-8-29.5-16-42.7
		c-4.1-6.8-8.5-13.6-12.1-20.7c-11.7-23-0.8-48.8,22.9-55.3C118.3,59.8,121.4,59.8,123.7,59.7z"/>
	<path class="st1" d="M125,112.3c-9.1,0-15.9-6.7-15.8-15.7c0.1-8.6,7.1-15.5,15.7-15.5c8.7,0,15.8,7,15.8,15.9
		C140.8,105.5,133.8,112.3,125,112.3z"/>
</g>
</svg>
