<?xml version="1.0" encoding="utf-8"?>
<!-- Generator: Adobe Illustrator 22.1.0, SVG Export Plug-In . SVG Version: 6.00 Build 0)  -->
<svg version="1.1" id="Layer_1" xmlns="http://www.w3.org/2000/svg" xmlns:xlink="http://www.w3.org/1999/xlink" x="0px" y="0px"
	 viewBox="0 0 541 293" style="enable-background:new 0 0 541 293;" xml:space="preserve">
<style type="text/css">
	.st0{fill:none;}
	.st1{fill:#D0808E;}
	.st2{fill:#FDE0E0;}
	.st3{fill:#FEF1F1;}
	.st4{fill:#FEF4F4;}
	.st5{fill:#F91C1F;}
	.st6{fill:#FA2F32;}
	.st7{fill:#FEFDFD;}
	.st8{fill:#A0011E;}
</style>
<g>
	<path class="st0" d="M271.5,294c-88.8,0-177.7,0-266.5,0.1c-3.4,0-4.1-0.7-4.1-4.1C1,195,1,100,0.9,5c0-3.4,0.7-4.1,4.1-4.1
		C182.7,1,360.3,1,538,0.9c3.4,0,4.1,0.7,4.1,4.1c-0.1,95-0.1,190,0,285c0,3.4-0.7,4.1-4.1,4.1C449.2,294,360.3,294,271.5,294z
		 M160.1,125.1c0-0.5,0.3-0.6,0.7-0.4C160.6,124.9,160.4,125,160.1,125.1c-0.4,0-0.9,0-1.4,0c-2.5-3.6-6.2-3.2-9.8-3
		c-5-4.4-10.9-5.6-15-3c3.2,0.6,6.8-0.2,9.3,2.3c2,1.9,3.7,1.9,5.7,0.6c0.5,2.9,1.4,4.8,5,3.2c1.4-0.6,3.2-0.1,4.9-0.2
		C159.3,125.1,159.7,125.1,160.1,125.1z M136,61c1.1-1.7,4.3-3.9-1-4c1.9-2.9,2-7.5,7.3-7c3.2,0.3,6,1.7,8.4,3.3
		c1.2,0.8-2.1,1.2-1.7,2.9c-0.4,0.2-0.8,0.5-1.2,0.7c0,0-0.1-0.1-0.1-0.1c0.4,0,0.9,0.1,1.3,0.1c3.7,3.8,9.2,5.1,13.1,3.2
		c0.8-0.4,1-1,0.4-1.5c-2.5-2-0.2-1.5,0.8-1.8c1.2-0.3,2.7-0.2,2.7-2.2c-2.9-2.2-6.4-2.9-9.5-4.9c-6.4-4.2-14.8-3.7-22.5-4.4
		c-1-0.2-2-0.3-3-0.5c1.9-2.8,5.6-0.6,7.8-2.7c0.1-0.3,0.1-0.7,0.2-1c4.1-1.1,7.6-4,11.9-4.4c0.1,0.9,0,2,1.2,2.2
		c4.5,2.9,9.5,2.7,14.6,2.4c2.9-0.2,7.2,0.6,7.6,3.5c0.7,4.3,3.1,5.3,6.8,5.7c-3.2,4-2.9,3.9-0.6,7.9c2.1,3.8,5.9,4,9.2,5.6
		c2.4,1.1,4,1.1,5.3-1.4c2-3.7,4.6-6.8,9.5-6.2c0.6,0.1,1.4-0.2,1.9-0.6c2.7-2.8,6.1-2.7,9.6-3.1c3.5-0.4,7.7-0.7,8.3-6.2
		c0.2-2,5.4-2.9,1.9-6.4c3.3,0.6,2.9-3.6,5.7-4.2c1.7-0.3,4.1-0.5,5.9-2.9c-4.5,0-8.9,1.3-11.9-0.3c-4.4-2.4-9-2.7-13.4-2.7
		c-16.3-0.1-32.7,0.5-48.7,4.3c0.5-2.2,0.3-4-2.6-3.1c-4,1.1-7.8,0.3-11.8,0c-7.5-0.6-15-0.2-22.1,2.8c-1.6,2.2-3-0.4-4.6-0.3
		c-2.1,0.2-3.3,0.9-2.8,2.1c1.4,3,4.2,2.4,6.7,2.5c2.5,0,3.6-1.1,3.2-3.6c1.1,0,2.5-0.3,2.9,1.1c0.5,1.4-0.5,2.2-1.5,2.8
		c-0.9,0.6-2.2,0.8-2.3,2.3c-0.2,0.2-0.3,0.5-0.2,0.8c-0.9,0.1-1.8,0.2-2.7,0.2c-0.7-1-1.6-1.3-2.6-0.5c0.3,0.3,0.5,0.6,0.8,0.8
		c0.7,2.3,3,1.3,4.8,2.2c-2.8,1.4-4,2.8-0.2,3.9c0.5,0.2,0.8,1,1.1,1.5c-1.3,0-2.3,0.5-3,1.7c-1.3,0.9-2-0.6-3-0.8
		c-0.2-0.3-0.4-0.6-0.7-0.9c-1.7-2-3.9-2.2-6.3-2c-2.7-8.4-2.7-8.4-11.4-7.4c0.5,3.7,4.3,0.9,5.8,2.9c-1,0.8-1.9,1.6-2.7,2.2
		c2.2,3.5,5.7,1.2,8.4,2.3c0,1.1,0.6,1.8,1.7,2.2c0.9,0.3,1.5,0.8,0.9,1.8c-0.5,0.9-2.2,1.6-2.4,1c-1.7-3.7-2.7-1-4.1,0.1
		c-1.7,1.3-3.5,0.3-5.2-0.2c-0.8-0.2-1.2-1-0.6-1.5c2.8-2.3,0.9-2.5-1.1-2.7c-2.3-0.3-1.8-2.4-2.5-3.7c0.6-3.4-0.6-4.9-4.3-4.9
		c-2,0-4-1.2-4.9-1.5c1,2.4,3.2,5,6.9,5.9c-0.1,0.2-0.1,0.3-0.2,0.5c-4.4,1-8.8,1.2-13.2-0.2c-2.2-2-5.1-0.6-7.6-1.4
		c-1.3-0.4-3.2-0.5-3.9,1.1c-0.3,0.7-0.8,1.7,0.2,2.7c1.5,1.5,3.1,0.8,4.7,0.5c1.6-0.2,2.7-3,4.7-0.9c-0.1,1.6,1.3,1.5,2.1,2
		c-0.1,1-0.2,2-0.3,3c-6.2-1.6-12.8-2.7-19-1.6c-9.4,1.7-18.3,0-27.4-1c-8.3-0.9-16.6-2.5-24,3.1c0.8,0.6,1.6,1.2,2.3,1.7
		c-1.1,1.6-3.5,0.3-4.1,2.5C18,59,21.3,57,25,58.8c-5,0.9-8.1,2.8-10.9,6.5c5.4-1.4,9.9,0.8,16.1,1.5c-3.3,1.7-5.5,2.8-7.8,4
		c4.8,1.6,8.1-3.4,12.6-2.5c-0.2-2.9,1.9-2.6,3.8-3.5c3.8-1.7,7.4-0.7,11.1-0.7c7.3,0.1,12.5,4.8,18,8.3c3.2,2,4.3,7,8.2,9.3
		c1.8,1.1,1.7,3.3,1.1,5.3c-0.9,3.4,0.4,6,2,9.1c2.6,5,8.8,6.3,10.6,11.7c0.4,0.7,0.8,1.4,1.2,2.1c-1,2.9,1.8,2.4,3,3.3
		c0.2,2.5,1.8,3.7,4,4.4c-1.3-2-1.3-4.7-3.8-5.8c0.8-1.4,2.2-1.2,2.9-0.4c2.4,2.4,6.1,4.8,6.5,7.6c1.2,7.2,7.3,7.4,11.7,8.5
		c7.1,1.8,13.9,3.5,18.9,9.3c0.9,1.9,3,2.3,4.5,3.4c1,0.7,1.7,1,2.1-0.4c0.3-1.1,0.3-2-1.2-1.9c-2.7,0.1-4.2-1.3-4.6-3.9
		c2.6-7.2-3.4-5.1-6.8-6.1c0.3-1.3,0.5-2.5,0.9-3.7c0.4-1.3,0.9-2.6,1.4-4c-2.3-0.1-4,0-4.8,2.2c-0.5,1.4-1.6,1.8-3,2.2
		c-4.3,1-6.2-1.8-7.5-4.8c-1.6-3.8,0.9-11.1,4-11.2c4.5-0.1,8.8-2.6,13.4-1.2c2.5,0.7,4.6,1.4,4.8,4.6c0.1,1.1,0.5,2.7,2.4,2.6
		c1.1-1.9,0-3.6-0.6-5.2c-1-2.7-0.4-4.8,2.1-6.3c2.8-1.7,6.3-3,4-7.5c-0.1-0.2,0.3-1.1,0.7-1.2c5.6-1.9,8.8-8,15.1-8.7
		c1.7,3.5,3.7-0.3,5.7,0.3c-2.9-1.1-3.4-3.8-4.7-5.9c-1,0.1-1.9,0.2-2.9,0.3c0-0.4,0-0.8,0-1.2c3.7-2.3,7.9-0.6,11.8-1.3
		c0.4,0.4,0.9,0.9,1.3,1.3c-0.7,0.9-1.3,1.8-2,2.7c-0.8,0.3-2.1,0.1-1.7,1.6c0.1,0.3,0.8,0.9,1,0.8c1.1-0.5,0.6-1.6,0.7-2.4
		c2.2,0.4,4.3,1,6.5,1.3c1,0.1,2.4,1.5,3.1,0.1c0.6-1.5-0.4-3.1-1.9-3.4c-1.9-0.4-2.7-0.8-1.7-2.7c0-0.8-0.2-1.5-1-1.9
		c-4.3-3.3-9.4-5.6-11.6-11.3c-2.3,2.1-4.7,4.5-6.4,2.2c-3.4-4.8-8.1-4.3-12.8-4.8c-0.8,0-1.6,0.1-2.4,0.1c0.3,1.2,1.2,0.6,1.9,0.8
		c0.1,3.9,2.2,8-1.5,11.6c-0.5,0.5,0.2,3.2-1.6,3.3c-1.7,0.1-3.5-0.9-3.7-3.1c-0.1-0.9,0.3-2.1-1.3-2.1c-4.1,0.2-7.2-2.9-11.4-3.1
		c-1.8-0.1-4.5-2.3-4.9-3.9c-0.4-1.8,2-3.2,4-4.4c3.7-2.3,7-1.6,10.5,0C134.3,61.6,134.7,62.5,136,61z M459.8,82.7
		c-1.3,1.5,0.7,4.2-1.3,4.9c-3.6,1.4-1.9,3.4-1.2,5.4c-0.9,4.6-4.6,5.9-8.4,6.1c-2.6,0.2-4.2,1.8-6.1,2.8c-2.2,1.1-0.1,2.8,0.4,3.6
		c0.7,1.2,1.9-0.1,2-0.9c0.4-2.3,2-1.5,3.4-2c4.1-1.4,9.7-1.3,10.6-7.5c1-0.5,0.8-1,0-1.4c0-0.3-0.1-0.6-0.2-0.8
		c-0.3-4.3,3.7-1.6,5.2-3.1c0.5-0.5,1.6-0.7,1.7-1.5c0-1-0.9-1.2-1.8-1.3c-2-0.1-3.2-0.9-2.4-3.1c1.2-3.7,1.3-7.4,0.2-11.2
		c-1.6-0.4-2.2,2-3.8,1.5c-1.7-2.1-5.1,0.7-6.5-2.4c4.4-4.1,9.3-6.8,15.7-6.8c4.7,0,10.1,2.1,14-2.9c0.5-0.7,2.6-1,3.3-0.5
		c2.4,1.8,3.9,0.5,5.8-0.8c1.7-1.3,1.8,0.2,1.6,1.5c-0.6,0.3-1.1,0.8-0.9,1.6c-10.6,2.7-11.9,4.4-9.9,13c0.1,0.2,0.4,0.4,0.6,0.6
		c3.7-4.2,8.6-7.4,9.4-13.5c0.3-0.1,0.7-0.1,1-0.2c6.9,0.5,13.3-1.9,20-3c0.8-0.1,1-0.6,1-1.3c-0.2-2.2,2.2-3.8,4.5-3
		c4.8,1.8,7.5,1.5,10.4-1.3c-7.3-1.9-14.3-4.9-21.9-5.5c-2.8-0.2-4.7,2.2-7.5,1.3c-4.9-1.7-10.1-0.7-15.3-2
		c-6.3-1.5-13.3-3.2-20.2-2.9c-2.9-2.2-0.3-3.1,1.8-4.1c-3.2-2-6.1-0.4-8.8-1c-0.8-0.2-2.2-0.5-2.4,0.9c-0.1,1.1,0.9,1.6,1.9,1.9
		c1.7,0.4,3.3,0.8,2.6,3.2c-4.9,2.2-10.4-0.6-15.3,1.8c-0.1,0.1-0.7-0.3-0.7-0.6c-1.4-4.8-5.6-3.4-8.3-3c-7.8,1.1-15.3-1.2-22.9-0.4
		c2.5-1.7,5.8-1,8.1-3.3c-4.3-2.1-8.8,0.2-12.9-1.5c0.9-3.1,0.6-4-2.6-3.9c-2.5,0.1-5.2-0.3-6.7-1.5c-4-3-7-0.3-11.5,0.9
		c6.3,1.5,11.3,3.1,16.6,2.8c1.1-0.1,1.4,0.6,1.3,1.6c-10.1,1.2-20.1,2.9-29.9,5.4c-0.1,0-0.3,0-0.4,0c0.2,0.2,0.3,0.3,0.5,0.5
		c-2.5,1.5-5.1,2.6-8.1,2.4c-0.3-0.7-0.8-1-1.4-0.5c-0.2,0.2-0.1,0.8-0.2,1.2c0.6,4,0.2,7.1-5.1,5.8c0.2-0.3,0.5-0.6,0.7-0.8
		c4.9-1.5,0.3-4.8,1.3-7c-0.1-1.5-1.4-0.8-2.2-1.1c-2.4-0.6-2.8,1.7-4.2,2.6c-1.2,0.6-0.3,1.8-0.8,2.5c-10,0.9-20.2,0.1-29.9,3.9
		c-0.3-0.5-1-1.3-0.8-1.6c0.8-1.6-0.4-1.6-1.3-1.6c-0.9,0-2.2-0.3-2.5,0.7c-0.3,1,0.9,1.5,1.6,2c-1.2,1.6-2.8,0.6-4.2,0.6
		c0.1-1.4-0.5-2.2-1.9-2.2c-4.5-1.4-9.7-1.1-13.8-2.7c-6.8-2.7-12.5-1.2-18.7,1.1c-5.6,2.1-9,7.8-15.2,8.9c-2.2,0.4-3.1,2.1-2.3,4.5
		c0.9,2.6,2.8,2.9,4.7,1.8c2.3-1.3,3.1,0,4.6,1.3c1,0.9,0.5,3.7,3.3,2.6c2.9-1.1,4.5-3.9,5-6.1c1-4.7,5.3-8.6,10.2-7.9
		c-0.1,1.4-1.3,1.8-2.3,2.2c-1.7,0.6-3.1,1.5-2.5,3.6c0.7,2.2,2.7,1.8,4.2,1.6c2.6-0.4,5.2-0.4,7.8-0.1c0,0.4,0,0.8-0.1,1.1
		c-2.7,0.2-5.3,0.3-8,0.5c-0.2,0.1-0.6,0.2-0.7,0.4c-0.2,0.6,0.1,0.9,0.7,0.9c0.5,4.3-3.4-0.4-4,1.9c-1.3,5.4-6.3,3.7-9.3,3.8
		c-1.7,0.1-7.6,4-7-3.1c0-0.7-0.9-0.8-1.6-0.6c-0.7,0.1-1.6,0.7-1.3,1.1c2.2,3.9-1.9,3.7-3.4,4.9c-1.9,1.6-5,1.6-6.5,3.9
		c1.4-4.9-4-6.3-5.3-9.9c-0.5-1.5-2.6-3.7-5.3-1.7c-2.7,1.9,2.4,2.1,0.7,3.7c-2.8,0.9-6.9,0.4-5.8,5.5c4.5,0.7,5.4-2.1,5.7-5.5
		c1.1,0.9,4.2,0.4,1.8,3.6c-1.6,2.1-1,4.6,2.9,3.8c1.1-0.2,3.6-1.8,3.2,1.6c-2.3-0.5-4,1.4-7.2,1.3c3.3,1.3,6.3,1.7,5.5,5.2
		c-0.8,3.4-3.6,1.1-5.4,1.6c-0.5,0.1-1,0-1.5,0.1c-1.5,0.1-4.5-0.7-3.8,1.4c0.7,2.5-2.9,6,1.6,7.7c4,1.5,2,3.6,0.1,5
		c-1.8,1.3-3.4,2.4-3.4,5c0,1.4-0.9,2.2-2.3,2.9c-6.1,3.1-10.5,17.4-7.2,23.5c0.1,0.1,0.2,0.3,0.3,0.4c5.3,5.3,9.4,12.5,19.2,9.9
		c4.6-1.3,9.4-3.7,14.9,0.6c2.4,1.8,4.3,2.7,3.2,5.3c-1.2,2.8,0,4.2,1.5,6.1c3.9,5,6.4,10.2,2.6,16.5c-1.3,2.1-1.3,4.6,0.3,6.6
		c2.1,2.6,3,5.5,3.4,8.6c0.6,4.5,4.9,7.4,5.3,12.1c0,0.5,1.4,1.4,1.9,1.3c5.6-1.2,11.9-0.4,15.9-6.4c1.9-2.8,1.5-7.3,5.9-8.3
		c0.3-0.1,0.6-1.7,0.3-2.3c-1.7-3.8,0.9-6.3,3.4-7.4c5-2.1,4.8-6,3.4-9.5c-3.3-8.1,0.2-13.6,6.3-17.8c3.7-2.6,6.4-5.5,8.1-9.7
		c0.6-1.5,1.9-3.2,0.9-4.6c-1-1.3-2.7,0.2-4.1,0.2c-0.9,0-1.9,0.7-2.9,0.8c-2,0.1-4.3,0.3-3.8-2.9l0.5,0l0.5-0.1
		c1.8-0.5,3.6-0.8,5.2-1.6c5.6-2.5,11.8-4.2,15.6-9.8c0.9-1.3,2.1-2.6,0.5-3.9c-1.5-1.1-3-3.6-4.9-2.6c-5.4,3.1-6.8-1.7-9.3-4.3
		c-0.7-0.7-1.5-2.1-0.1-3c1.2-0.8,2.5-0.2,3.1,0.7c1.2,2,3,3.7,4.9,3.9c5.2,0.5,10.1,3.4,15.6,2.4c3.3-0.6,6.3,2,6.7,3.8
		c1,5,3,0.6,4.4,0.9c-0.3,7.4,3.7,13.2,6.3,19c2,0.3,1.9-2.5,3.8-1.6c-0.1,0.6,0,1.3-0.3,1.9c-0.6,1.6-0.1,2.9,1.3,3.8
		c0.3,0.2,1.3-0.3,1.6-0.7c0.8-1.2,0.3-2.4-0.4-3.7c-0.5-1.1-1.3-1.4-2.3-1.2c-0.2-3.2,0-6.6,1.9-9c2.4-3,5.7-5.5,8.9-7.7
		c2-1.4,3.8-2,6.8,0.3c2.7,2,0.5,9.3,7,6.8c0,0,0.4,0.8,0.6,1.3c0.5,1.7,0.9,3.5,1.3,5.3c-1.6,3.7,0.1,6.2,2.8,8.5
		c0,1.7,1.7,3.3,0.5,5.2c-2.6-1.4-3.7-5.6-8.3-4.3c3.5,3.7,6.6,7.3,9.1,11.3c1.2,1.9,2.8,4.3,5.7,4.3c2.8,5.6,8.1,3.2,13.4,4.6
		c-4.1-3.6-4.6-3.8-13.3-4.6c2.8-5-2.8-6.6-4.1-9.9c1.2-0.3,2.7-0.5,0.9-2.1c0-2.3-0.2-4.5-2.6-5.6c-1.6-2.2-3.3-4.4-2.6-7.4
		c1.5-5,3-0.2,4.2,0.2c1.8,0.6,2.5,3.8,4.8,3.1c5.3-1.5,6.2-5.2,2.8-9.7c-0.6-0.8-1.3-1.5-1.9-2.3c-2.3-3.2,1.3-6,2.2-5.4
		c4.4,2.5,7.1-1.6,10.6-2.1c4.9-0.7,7.4-6.2,8.2-11c0.6-3.4-4-4.7-1.8-7.8c0.9-0.3,2.1-0.8,1.6-1.7c-0.5-0.9-1.6-0.1-2.4,0.5
		c-2.8-2-2.2-3.4,0.7-4.5c3.1-1.3,8.6,1.5,10,5.7c0.5,1.7,1.1,2.3,2.7,1.8c1.7-0.6,1.1-1.9,0.9-3.3c-0.2-1.5-4.3-2.4-0.6-4.5
		c1.8-1,2.2-3.9,4.5-4.1c7.9-0.5,10.2-6.4,12.6-12.4c1.9-0.5,2.1,0.6,2,2.1C459.9,79.9,459.9,81.3,459.8,82.7z M506,210.8
		c-0.8-1-2-1.8-2.8-0.5c-1.4,2.3-3.7,3.2-5.7,4.6c-1,0.7-2.7,1.1-1.6,2.8c0.9,1.3,2.3,1.9,3.7,0.6c2.2-2,4.3-4.1,6.4-6.1
		C507,211.7,507.2,211.3,506,210.8z M183.7,151.6c-0.3-0.3-0.6-0.5-0.9-0.8c0.7-4.1-0.6-6.9-5.1-7.6c-2.8-0.4-5.1-1.2-7.2-3.5
		c-4.7-5.3-12.6-2.4-18.1-6.3c-0.2-0.2-1.3,1.1-2,1.2c-3.1,0.5-4.3,5.2-8.9,3.3c3.8,4.7,3.2,8.1,0.1,12.2c-1.9,2.6-3.6,7-1.6,9.9
		c2.4,3.5,4.2,7.1,6,10.8c0.7,1.4,1.5,2.7,3,3.1c6.1,1.5,6.2,5.8,5.6,10.9c-1,8.1-2.4,16.1-4.7,23.9c-0.8,2.7,1.5,5.3,0.2,6.3
		c-2.3,1.9-1.4,4.1-2.1,6.1c-1.2,3.4-0.1,6.2,2.6,8.3c2.8,2.2,6,2.9,9.6,1.2c-0.8-1.8-1.8-2.8-3.1-3.6c-1.3-0.8-1.4-2.1-0.2-2.8
		c4.1-2.3,2.7-7.1,4.8-10.5c2.1-3.4,3.9-6,7.9-6.5c4-0.5,5-2.4,2.7-5.9c5.1-0.1,13-5.4,13.3-10.1c0.4-4.7,3.7-6.2,6.7-6.7
		c4.7-0.9,6.4-4,6.6-7.5c0.3-4.8,2.1-8.3,5.2-11.8c1.9-2.1,2.5-4.6-1.1-6.7C196.9,154.9,190.2,153.7,183.7,151.6z M460.2,166.7
		c-0.2,2.1-0.4,3-0.4,4c-0.1,2.2,0.1,4.8-2.2,5.7c-1.9,0.7-3.4-1.7-5.2-2.4c-1.2-0.5-1.8-1.6-1.1-2.9c1.2-2.2-0.5-1.8-1.7-2.1
		c-5.7-1.5-9,4.9-14.4,4.5c-0.2,0-0.3,0.6-0.6,0.8c-3.3,2.9-6,6.6-11.1,7c-2.7,0.2-4.4,2.3-4.1,6c0.3,4.3,3.2,8,2.6,12.5
		c-0.2,1.6,1.2,2.1,2.4,1.6c3.8-1.6,8-1.1,11.8-3.2c5.4-3.1,15.5-0.7,19.3,4.1c4,5.1,7.2,4.8,13.4,3.5c3.8-0.8,3.2-5,5.1-7.4
		c3.7-4.6,3.4-9.4-0.8-13.3C467.9,180.1,464.4,174,460.2,166.7z M444.2,152.2c1.9,3.1,4.6,4.8,7.9,5.5c1.6,0.4,2.6,1.1,3,2.9
		c0.8,4,4.8,3.9,6.4,2.7c2.9-2.2,4-0.8,5.7,0.9c0.8,0.8,1.6,1.7,3,0.9c-2.1-4.1-4.8-7.3-9-9.6c-4.7-2.5-11,1-14.7-4.4
		C446.4,151.1,445.1,151.8,444.2,152.2z M419.9,155.9c1.6,0.5,2.7,0.4,3.3-1c1.6-3.7,2.3-7.5,2.6-11.4c0.1-1.1-1.1-3.4-3.4-1.3
		c-2.3,2.1-4.4,4.9-7.2,5.8c-4.3,1.4-2.4,3-1.4,5.3C415.2,156.4,418.1,155.1,419.9,155.9z M328,168.4c-3,2.8-3.8,5.7-7,5.9
		c-1.2,0.1-1.7,1.7-1.4,2.8c0.6,1.9,0.2,3.3-0.7,5.1c-0.8,1.8-0.1,3.9,1.6,5.3c1.4,1.2,3-0.3,3.3-1
		C326.1,181.1,327.9,175.6,328,168.4z M272.8,36.6c2.9,1,5,5,8.1,3.3c3.6-2,7.3-2.2,11-2.8c1-0.2,2.4,0.2,2.7-1.9
		C287.4,34.5,280.2,35.6,272.8,36.6z M331.8,35.5c6.9,0.3,12.6,0.6,18-1.9C344.3,35.3,338.2,30.9,331.8,35.5z M343.4,42.2
		c-2.9-0.6-5.8-0.1-7.8,1.9c-1.4,1.4-4.8,1.5-4.3,3.4c0.5,2.4,3.8,1.1,5.7,1.9c0.2,0.1,0.5-0.3,0.3-0.1
		C335.5,43.3,342.4,45.3,343.4,42.2z M503.7,200.8c2.3,2.7,3.2,4.9,2.8,7.5c-0.1,0.8,1.5,2.6,2.1,2.5c2.1-0.3,2.3-2.9,4-4
		c0.4-0.3,0.4-1.6-0.3-1.5C508.6,206,507.9,201.8,503.7,200.8z M223.5,57.9c6,2,6.1,2,11.8-1C232.5,54.7,229.1,55,223.5,57.9z
		 M432.7,158.7c-1-3.4-1.9-6.3-4.2-8.6c-1.1,3.1-1.8,5.9-1.1,9.2C429.1,158.7,430.8,157.5,432.7,158.7z M434.7,138.5
		c-2.2-1.1-1.9,1.1-2.8,1.3c1.2,0.9,2.2,2.4,3.6,2.7c0.9,0.2,3-0.2,2.8-2.4C438,136.3,435.8,138.2,434.7,138.5z M429.8,133.9
		c1.4-1.3,2.3-2.8,4.6-1.4c-0.9-2.4-5.1-2.4-2.8-5.8c0.3-0.4-0.3-2.1-1.5-2.1c-1.1,0-1,1.1-1.2,1.8
		C428.2,129,429.3,131.3,429.8,133.9z M463.1,208.4c1.1,3.3,1,5.5,3.7,5.5c1.4,0,2.8-1.2,2.3-2.7
		C468.3,208.5,465.6,210.7,463.1,208.4z M78,41.1c4.8,1.1,8.1,2,10.9-1.7C83.8,38.8,83.8,38.8,78,41.1z M121.3,45
		c0.3-0.7-0.2-1-0.6-0.9c-0.6,0.1-1.2,0.3-1.7,0.7c-0.4,0.3-0.3,0.9,0.3,1.1C120.1,46.1,120.7,45.8,121.3,45z"/>
	<path class="st1" d="M291,65.5c2.7-0.2,5.3-0.3,8-0.5c0.8-0.3,2.6,0.8,2.2-1.3c-0.1-0.6,0.2-1.9-0.9-1.7c-0.5,0.1-0.9,1.2-1.3,1.9
		c-2.6-0.3-5.2-0.3-7.8,0.1c-1.5,0.2-3.5,0.6-4.2-1.6c-0.6-2.1,0.8-3,2.5-3.6c1.1-0.4,2.2-0.8,2.3-2.2c-4.9-0.8-9.2,3.2-10.2,7.9
		c-0.5,2.2-2,5-5,6.1c-2.8,1-2.3-1.7-3.3-2.6c-1.4-1.3-2.3-2.6-4.6-1.3c-1.9,1-3.8,0.8-4.7-1.8c-0.8-2.4,0.1-4.2,2.3-4.5
		c6.2-1.1,9.6-6.8,15.2-8.9c6.1-2.3,11.9-3.8,18.7-1.1c4.2,1.7,9.3,1.3,13.8,2.7c0.8,3.1-1.7,2.1-3,2.3c-1.9,0.3-3.8-1.1-5.8-0.2
		c2.7,5.3,6.5,5.3,10.7,0c1.4,0,3,1,4.2-0.6c0.9,0.8,1.9,0.4,2.9,0.4c9.6-3.8,19.9-3,29.9-3.9c0,0-0.1-0.1-0.1-0.1
		c-0.4,1,0.4,1.1,0.9,1c1.1-0.2,0.4-0.8,0.1-1.3c-0.1-0.7-0.1-1.4-0.2-2.1c1.4-0.9,1.8-3.3,4.2-2.6c0.4,0.9,1.3,1.1,2.2,1.1
		c-1,2.2,3.7,5.5-1.3,7c-0.2,0.3-0.5,0.6-0.7,0.8c5.4,1.3,5.7-1.9,5.1-5.8c0.5-0.2,1.1-0.5,1.6-0.7c3,0.3,5.6-0.9,8.1-2.4
		c0-0.2,0-0.3,0-0.5c9.9-2.5,19.9-4.2,29.9-5.4c1,0,2,0,3,0.1c4.1,1.7,8.5-0.7,12.9,1.5c-2.4,2.3-5.6,1.6-8.1,3.3
		c7.7-0.7,15.2,1.5,22.9,0.4c2.7-0.4,7-1.8,8.3,3c0.1,0.3,0.6,0.6,0.7,0.6c4.9-2.4,10.4,0.4,15.3-1.8c1.6-0.3,3.2-0.6,4.9-0.9
		c6.9-0.3,13.9,1.4,20.2,2.9c5.2,1.3,10.4,0.3,15.3,2c2.8,0.9,4.7-1.5,7.5-1.3c7.6,0.7,14.6,3.6,21.9,5.5c-2.9,2.8-5.5,3.1-10.4,1.3
		c-2.2-0.8-4.7,0.8-4.5,3c0.1,0.8-0.1,1.2-1,1.3c-6.6,1.1-13.1,3.6-20,3c-0.1-0.5-0.1-1-0.2-1.5c0.2-1.3,0.1-2.7-1.6-1.5
		c-1.9,1.4-3.4,2.7-5.8,0.8c-0.6-0.5-2.7-0.2-3.3,0.5c-3.9,5-9.3,2.9-14,2.9c-6.4,0-11.3,2.7-15.7,6.8c1.5,3.1,4.9,0.3,6.5,2.4
		c0,0.7,0,1.5-0.1,2.2c-2.4,6-4.7,11.9-12.6,12.4c-2.3,0.2-2.8,3.1-4.5,4.1c-3.8,2.1,0.4,3,0.6,4.5c0.2,1.4,0.8,2.7-0.9,3.3
		c-1.5,0.5-2.1-0.1-2.7-1.8c-1.4-4.2-6.8-7-10-5.7c-2.8,1.2-3.5,2.6-0.7,4.5c0.3,0.4,0.5,0.8,0.8,1.3c-2.2,3.1,2.4,4.4,1.8,7.8
		c-0.8,4.8-3.3,10.3-8.2,11c-3.5,0.5-6.1,4.6-10.6,2.1c-0.9-0.5-4.5,2.3-2.2,5.4c0.6,0.8,1.3,1.5,1.9,2.3c3.4,4.5,2.5,8.1-2.8,9.7
		c-2.3,0.7-3-2.6-4.8-3.1c-1.2-0.4-2.7-5.2-4.2-0.2c-0.5,0-1,0-1.5,0c-0.4-1.8-0.8-3.5-1.3-5.3c-0.1-0.5-0.5-1.3-0.6-1.3
		c-6.5,2.5-4.3-4.7-7-6.8c-3.1-2.3-4.8-1.7-6.8-0.3c-3.2,2.2-6.4,4.7-8.9,7.7c-1.9,2.4-2.1,5.8-1.9,9l0.1-0.1
		c-2-0.9-1.9,1.9-3.8,1.6c-2.6-5.9-6.6-11.7-6.3-19c-1.4-0.3-3.5,4.1-4.4-0.9c-0.4-1.9-3.4-4.4-6.7-3.8c-5.5,1-10.3-1.9-15.6-2.4
		c-1.9-0.2-3.8-1.8-4.9-3.9c-0.5-0.9-1.9-1.6-3.1-0.7c-1.3,0.9-0.6,2.3,0.1,3c2.5,2.6,3.9,7.3,9.3,4.3c1.9-1.1,3.5,1.4,4.9,2.6
		c1.6,1.2,0.3,2.6-0.5,3.9c-3.8,5.6-9.9,7.3-15.6,9.8c-1.6,0.7-3.5,1.1-5.2,1.6c-0.9-6-5-10.4-7.6-15.6c-1.8-3.7-4.5-6.9-6.9-10.3
		c0.8-1.6,1.7-3.1,2.3-4.8c0.5-1.3,1.6-2.9,0.3-4c-0.7-0.5-2.2,0-3.4,0.6c-1.7,0.8-4.3,0.2-6.3-0.4c-2.3-0.7-2.9-2.9-3-5.2
		c1.3-0.4,2.9,0.4,4-1.4c-2.1-1.4-3.2-0.4-4,1.3c-2.1-0.4-5-3.2-5.5,1.7c0,0.4,0,0.9,0,1.3c0,0,0.1-0.1,0.1-0.1
		c-0.6,0-1.2-0.1-1.8-0.1c-3.1-2.4-4.3-6.7-8.5-8.3c-1.5-0.6-3.5-2.9-4.5-2.1c-2,1.7,2.2,2.3,1.7,4.2c-0.1,0.5-0.1,1-0.2,1.5
		c-2.4,0.9-2.9-1.7-4.4-2.5c-1-0.5-1.3-2.3-2.7-1.7c-3.9,1.7-9.3,1-11.5,5.4c-1.8,3.8-4.8,5.1-8.3,6.1c-0.1,0-0.1,0.6-0.1,1.1
		c5.8,1,11.2-2.7,17-1.8c2.4,0.4,6.1-1.2,5.2,3.9c-0.1,0.8,1.4,2.2,2.5,2c4.5-0.8,9,6.8,13.5,0.1c0.1-0.1,0.3-0.2,0.5-0.1
		c4.9,2.2,10.3,2,15.4,3.1c3.3,9.7,6.9,19.3,15.3,26c-0.5,3.3,1.7,3,3.8,2.9c1-0.1,1.9-0.8,2.9-0.8c1.4,0.1,3.2-1.5,4.1-0.2
		c1,1.4-0.3,3-0.9,4.6c-1.6,4.2-4.3,7.1-8.1,9.7c-6.1,4.3-9.6,9.7-6.3,17.8c1.4,3.4,1.6,7.3-3.4,9.5c-2.6,1.1-5.1,3.5-3.4,7.4
		c0.3,0.6,0,2.2-0.3,2.3c-4.4,1.1-4,5.6-5.9,8.3c-4,6-10.3,5.1-15.9,6.4c-0.5,0.1-1.8-0.8-1.9-1.3c-0.4-4.7-4.7-7.6-5.3-12.1
		c-0.4-3.1-1.4-6.1-3.4-8.6c-1.6-2-1.6-4.5-0.3-6.6c3.8-6.3,1.3-11.6-2.6-16.5c-1.5-1.9-2.7-3.3-1.5-6.1c1.1-2.6-0.8-3.4-3.2-5.3
		c-5.5-4.3-10.3-1.8-14.9-0.6c-9.8,2.7-13.9-4.6-19.2-9.9c-0.1-0.1-0.2-0.2-0.3-0.4c-3.2-6.1,1.1-20.4,7.2-23.5
		c1.4-0.7,2.3-1.5,2.3-2.9c-0.1-2.6,1.5-3.7,3.4-5c1.8-1.3,3.9-3.5-0.1-5c-4.5-1.7-0.9-5.1-1.6-7.7c-0.6-2.1,2.3-1.3,3.8-1.4
		c0.5,0,1,0.1,1.5-0.1c1.8-0.5,4.6,1.8,5.4-1.6c0.8-3.4-2.2-3.9-5.5-5.2c3.2,0.1,4.9-1.8,7.2-1.3c1,0.2,1.7,0,2-1
		c1.5-2.4,4.6-2.3,6.5-3.9c1.4-1.3,5.5-1,3.4-4.9c-0.3-0.5,0.6-1,1.3-1.1c0.7-0.1,1.6,0,1.6,0.6c-0.5,7.1,5.4,3.1,7,3.1
		c3.1-0.1,8,1.6,9.3-3.8c0.5-2.3,4.4,2.4,4-1.9C291,66.4,291,66,291,65.5z M303.3,54.6c0.1-0.3,0.4-0.6,0.3-0.8
		c-0.1-0.2-0.5-0.3-0.8-0.4c-0.1,0.3-0.4,0.6-0.3,0.8C302.5,54.5,303,54.5,303.3,54.6z M303.9,63.5c-0.1-0.3-0.3-0.5-0.4-0.8
		c-0.2,0.2-0.4,0.5-0.4,0.7c0,0.2,0.2,0.5,0.3,0.8C303.6,64,303.8,63.8,303.9,63.5z M375.7,47.1c-0.2-0.1-0.4-0.3-0.6-0.4
		c-0.1,0-0.4,0.2-0.3,0.3c0.1,0.2,0.2,0.5,0.3,0.7C375.3,47.5,375.5,47.3,375.7,47.1z"/>
	<path class="st1" d="M117,48.1c2.4-0.2,4.6,0,6.3,2c-0.5,0.8,0.1,0.9,0.7,0.9c1,0.2,1.7,1.7,3,0.8c0.6,0,1.3-0.6,1.6,0.4
		c0.5,2.3,1.8,1.6,3.3,1.1c1.4-0.5,1.9-2,1.6-2.6c-0.7-1.4-2.3-0.3-3.5-0.6c-0.4-0.5-0.6-1.4-1.1-1.5c-3.8-1.2-2.6-2.6,0.2-3.9
		c-1.9-0.9-4.2,0.1-4.8-2.2c0.6-0.1,1.2-0.2,1.9-0.4c0.9-0.1,1.8-0.2,2.7-0.2c3.3,0.1,6.7,0.3,10,0.4c-2.2,2.1-5.9-0.1-7.8,2.7
		c0.1,1.2-0.5,2.8,1.4,2.9c1.6,0.1,1.4-1.4,1.5-2.4c7.7,0.7,16.1,0.2,22.5,4.4c3.1,2,6.6,2.7,9.5,4.9c0,1.9-1.5,1.9-2.7,2.2
		c-1.1,0.2-3.3-0.2-0.8,1.8c0.6,0.4,0.4,1.1-0.4,1.5c-3.9,1.9-9.4,0.6-13.1-3.2c0-0.2,0-0.5,0-0.7c-0.4-1.6,2.9-2.1,1.7-2.9
		c-2.5-1.6-5.3-3-8.4-3.3c-5.3-0.5-5.4,4.1-7.3,7c0,0.9,0,1.8,0,2.7c-0.3,0.2-0.6,0.4-1,0.6c-3.5-1.6-6.8-2.3-10.5,0
		c-2,1.2-4.4,2.6-4,4.4c0.4,1.7,3.1,3.9,4.9,3.9c4.1,0.2,7.3,3.3,11.4,3.1c1.6-0.1,1.2,1.1,1.3,2.1c0.2,2.2,2,3.2,3.7,3.1
		c1.8-0.1,1-2.8,1.6-3.3c3.7-3.6,1.6-7.7,1.5-11.6c0.2-0.3,0.3-0.6,0.5-0.9c4.7,0.5,9.4,0,12.8,4.8c1.7,2.4,4.1,0,6.4-2.2
		c2.2,5.7,7.3,8,11.6,11.3c-0.9,1.7-4.1,0-4.2,2.9c-3.9,0.7-8-1-11.8,1.3c-1.6,0.2-3.1,0.6-3.5,2.6c1.4,0,2.6-0.2,3.5-1.4
		c1-0.1,1.9-0.2,2.9-0.3c-1.7,1.6,1.4,4.1-1,5.6c-6.3,0.7-9.4,6.8-15.1,8.7c-0.3,0.1-0.8,0.9-0.7,1.2c2.4,4.5-1.2,5.8-4,7.5
		c-2.6,1.6-3.1,3.6-2.1,6.3c0.6,1.6,1.7,3.3,0.6,5.2c-1.9,0.1-2.3-1.5-2.4-2.6c-0.2-3.2-2.3-3.8-4.8-4.6c-4.7-1.4-8.9,1.1-13.4,1.2
		c-3.1,0-5.6,7.4-4,11.2c1.3,3,3.2,5.8,7.5,4.8c1.4-0.3,2.5-0.8,3-2.2c0.8-2.2,2.5-2.3,4.8-2.2c-0.5,1.4-1,2.7-1.4,4
		c-0.4,1.2-0.6,2.5-0.9,3.7c3.4,1,9.4-1.1,6.8,6.1c-1.1,0.7-0.8,1.8-0.9,2.9c-5-5.8-11.7-7.6-18.9-9.3c-4.4-1.1-10.5-1.3-11.7-8.5
		c-0.5-2.8-4.1-5.2-6.5-7.6c-0.7-0.7-2.1-1-2.9,0.4c-0.1,0.5-0.1,0.9-0.2,1.4c-1.2-0.9-4-0.4-3-3.3c1.3-0.3,3.3,0.9,3.6-1.2
		c0.1-1-1-2.6-2-3.1c-1.9-1-2.3,0.8-2.8,2.2c-1.8-5.4-8-6.7-10.6-11.7c-1.6-3.1-2.9-5.7-2-9.1c0.6-2,0.7-4.3-1.1-5.3
		c-3.9-2.3-4.9-7.3-8.2-9.3c-5.5-3.5-10.8-8.2-18-8.3c-3.7,0-7.3-1-11.1,0.7c-1.9,0.9-4,0.6-3.8,3.5c-4.5-1-7.8,4-12.6,2.5
		c2.3-1.2,4.5-2.3,7.8-4c-6.1-0.6-10.7-2.9-16.1-1.5c2.8-3.7,5.9-5.6,10.9-6.5c-3.7-1.8-7,0.1-9.3-2.1c0.6-2.2,3-0.9,4.1-2.5
		c-0.8-0.6-1.5-1.1-2.3-1.7c7.4-5.7,15.7-4,24-3.1c9.1,1,18.1,2.7,27.4,1c6.2-1.1,12.7,0,19,1.6c0.9,0.2,1,1.8,2.7,1.5
		c-0.4-1.7,0.2-3.8-2.4-4.5c-0.9-0.5-2.3-0.5-2.1-2c1.4,0,1.9-0.8,1.9-2.1c4.4,1.4,8.8,1.1,13.2,0.2c0.8,0,1.7,0,2.5,0
		c0.7,1.3,0.2,3.5,2.5,3.7c2,0.2,3.9,0.4,1.1,2.7c-0.6,0.5-0.2,1.2,0.6,1.5c1.7,0.5,3.6,1.5,5.2,0.2c1.4-1.1,2.4-3.9,4.1-0.1
		c0.3,0.6,1.9-0.1,2.4-1c0.6-1-0.1-1.5-0.9-1.8C117.7,49.9,117.1,49.2,117,48.1L117,48.1z M104.6,53.1c-4.7-4.4-7.7,0.9-11.4,0.3
		C96.9,54.9,100.3,52.5,104.6,53.1z M135.8,50c-0.1-0.1-0.1-0.3-0.2-0.3c-0.1,0-0.2,0.1-0.3,0.2c0.1,0.2,0.3,0.3,0.4,0.5
		C135.7,50.2,135.7,50.1,135.8,50z"/>
	<path class="st1" d="M183.7,151.6c6.5,2.1,13.3,3.3,19.3,6.7c3.7,2.1,3,4.6,1.1,6.7c-3.1,3.4-4.9,7-5.2,11.8
		c-0.3,3.5-2,6.6-6.6,7.5c-3,0.6-6.3,2-6.7,6.7c-0.4,4.7-8.2,10-13.3,10.1c2.4,3.5,1.3,5.4-2.7,5.9c-4,0.5-5.8,3.2-7.9,6.5
		c-2.1,3.4-0.7,8.2-4.8,10.5c-1.2,0.7-1.1,1.9,0.2,2.8c1.3,0.8,2.3,1.8,3.1,3.6c-3.5,1.7-6.7,1.1-9.6-1.2c-2.7-2.1-3.8-4.9-2.6-8.3
		c0.7-2-0.1-4.2,2.1-6.1c1.2-1-1-3.6-0.2-6.3c2.3-7.8,3.7-15.8,4.7-23.9c0.6-5.1,0.6-9.4-5.6-10.9c-1.5-0.4-2.3-1.7-3-3.1
		c-1.9-3.7-3.7-7.3-6-10.8c-2-3-0.3-7.3,1.6-9.9c3-4.1,3.7-7.5-0.1-12.2c4.7,1.9,5.8-2.7,8.9-3.3c0.7-0.1,1.8-1.4,2-1.2
		c5.5,3.9,13.4,1.1,18.1,6.3c2.1,2.4,4.5,3.1,7.2,3.5c4.5,0.7,5.8,3.5,5.1,7.6c-0.9,0.5-1.1,1.4-0.3,1.9
		C183.1,153.1,183.5,152.3,183.7,151.6z"/>
	<path class="st1" d="M163.9,34.3c16-3.8,32.3-4.4,48.7-4.3c4.5,0,9,0.4,13.4,2.7c3,1.6,7.4,0.3,11.9,0.3c-1.8,2.3-4.2,2.6-5.9,2.9
		c-2.8,0.6-2.5,4.8-5.7,4.2c3.5,3.5-1.7,4.4-1.9,6.4c-0.6,5.5-4.8,5.8-8.3,6.2c-3.5,0.5-6.9,0.4-9.6,3.1c-0.4,0.4-1.3,0.7-1.9,0.6
		c-4.9-0.6-7.5,2.5-9.5,6.2c-1.4,2.5-2.9,2.5-5.3,1.4c-3.3-1.5-7.1-1.7-9.2-5.6c-2.3-4.1-2.6-3.9,0.6-7.9c-3.6-0.4-6-1.5-6.8-5.7
		c-0.5-2.9-4.7-3.7-7.6-3.5c-5.1,0.3-10.1,0.5-14.6-2.4c0.4-2.5,2.3-1.7,3.8-1.9c1.7-0.2,3.6,0.7,5-1.1
		C162,35.4,162.9,34.8,163.9,34.3z"/>
	<path class="st1" d="M460.2,166.7c4.1,7.3,7.7,13.4,13,18.3c4.2,3.8,4.5,8.7,0.8,13.3c-1.9,2.4-1.3,6.7-5.1,7.4
		c-6.2,1.2-9.4,1.6-13.4-3.5c-3.8-4.8-13.9-7.2-19.3-4.1c-3.7,2.1-8,1.6-11.8,3.2c-1.2,0.5-2.6,0-2.4-1.6c0.7-4.5-2.2-8.1-2.6-12.5
		c-0.3-3.7,1.4-5.8,4.1-6c5.2-0.4,7.8-4.1,11.1-7c0.2-0.2,0.4-0.8,0.6-0.8c5.4,0.4,8.7-6,14.4-4.5c1.2,0.3,2.9-0.1,1.7,2.1
		c-0.7,1.2-0.1,2.4,1.1,2.9c1.8,0.8,3.3,3.1,5.2,2.4c2.2-0.9,2.1-3.5,2.2-5.7C459.9,169.7,460,168.8,460.2,166.7z"/>
	<path class="st1" d="M163.9,34.3c-1,0.6-1.9,1.2-2.9,1.7c-3.5-2.5-6.8,0-10.1,0.7c-4.3,0.5-7.8,3.3-11.9,4.4
		c-3.3-2.6-6.7,0.1-10-0.2c0.1-1.5,1.4-1.7,2.3-2.3c0.9-0.6,1.9-1.4,1.5-2.8c-0.5-1.5-1.8-1.1-2.9-1.1c-0.6-0.9-1.6-0.8-2.5-0.8
		c7.1-3,14.6-3.4,22.1-2.8c4,0.3,7.8,1.1,11.8,0C164.2,30.3,164.4,32,163.9,34.3z M134.6,34.9c0.3-0.1,0.5-0.3,0.8-0.4
		c-0.2-0.2-0.5-0.5-0.7-0.4c-0.3,0-0.6,0.3-0.9,0.5C134,34.7,134.3,34.8,134.6,34.9z"/>
	<path class="st1" d="M444.2,152.2c0.9-0.4,2.2-1.2,2.3-1.1c3.7,5.4,10,1.9,14.7,4.4c4.2,2.2,6.9,5.4,9,9.6c-1.4,0.7-2.2-0.2-3-0.9
		c-1.7-1.6-2.9-3.1-5.7-0.9c-1.6,1.2-5.6,1.3-6.4-2.7c-0.4-1.8-1.4-2.5-3-2.9C448.8,157,446.1,155.3,444.2,152.2z"/>
	<path class="st1" d="M419.9,155.9c-1.7-0.8-4.6,0.5-6-2.6c-1-2.3-2.9-3.9,1.4-5.3c2.7-0.9,4.9-3.7,7.2-5.8c2.3-2.1,3.5,0.2,3.4,1.3
		c-0.3,3.9-1.1,7.8-2.6,11.4C422.5,156.3,421.5,156.3,419.9,155.9z"/>
	<path class="st0" d="M304.8,107c2.3,3.4,5.1,6.6,6.9,10.3c2.6,5.2,6.7,9.6,7.6,15.6c0,0-0.5,0.1-0.5,0.1l-0.5,0
		c-8.4-6.7-12-16.2-15.3-26C303.6,107,304.2,107,304.8,107z"/>
	<path class="st1" d="M328,168.4c-0.1,7.3-1.9,12.8-4.2,18.1c-0.3,0.7-1.9,2.2-3.3,1c-1.6-1.4-2.4-3.5-1.6-5.3
		c0.8-1.8,1.2-3.2,0.7-5.1c-0.3-1.1,0.2-2.7,1.4-2.8C324.2,174.1,325,171.2,328,168.4z"/>
	<path class="st1" d="M407,159c-2.9-0.1-4.5-2.5-5.7-4.3c-2.5-4-5.5-7.5-9.1-11.3c4.6-1.3,5.7,2.9,8.3,4.3c1.2-1.9-0.4-3.5-0.5-5.2
		c0.4-0.3,0.8-0.7,1.3-1c2.4,1.2,2.6,3.3,2.6,5.6c-0.9,0.5-1,1.3-0.9,2.1c1.3,3.3,6.9,4.8,4.1,9.9C407.1,159,407,159,407,159z"/>
	<path class="st1" d="M257.9,78.9c-0.3,1-1.1,1.3-2,1c0.4-3.4-2.1-1.8-3.2-1.6c-3.9,0.8-4.4-1.6-2.9-3.8c2.4-3.3-0.8-2.7-1.8-3.6
		l0,0c1.7-1.6-3.3-1.8-0.7-3.7c2.8-2,4.8,0.2,5.3,1.7C254,72.6,259.3,74,257.9,78.9z"/>
	<path class="st1" d="M491,64c-0.8,6.1-5.8,9.3-9.4,13.5c-0.3-0.2-0.6-0.4-0.6-0.6c-2-8.6-0.7-10.3,9.9-13C490.9,63.9,491,64,491,64
		z"/>
	<path class="st1" d="M405.9,40c-1,0-2,0-3-0.1c0.1-1-0.1-1.6-1.3-1.6c-5.4,0.3-10.4-1.3-16.6-2.8c4.6-1.1,7.5-3.9,11.5-0.9
		c1.6,1.2,4.2,1.5,6.7,1.5C406.5,36.1,406.8,36.9,405.9,40z"/>
	<path class="st1" d="M458.9,93c0.1,0.3,0.2,0.5,0.2,0.8c0,0.5,0,1,0,1.4c-0.9,6.2-6.4,6-10.6,7.5c-1.4,0.5-3-0.3-3.4,2
		c-0.1,0.8-1.3,2.1-2,0.9c-0.5-0.9-2.5-2.5-0.4-3.6c2-1,3.5-2.6,6.1-2.8c3.8-0.2,7.5-1.5,8.4-6.1C457.8,93,458.4,93,458.9,93z"/>
	<path class="st1" d="M272.8,36.6c7.3-0.9,14.5-2.1,21.9-1.4c-0.3,2-1.7,1.7-2.7,1.9c-3.8,0.6-7.5,0.8-11,2.8
		C277.8,41.6,275.7,37.6,272.8,36.6z"/>
	<path class="st1" d="M117.1,48c-2.7-1.1-6.2,1.2-8.4-2.3c0.8-0.7,1.7-1.4,2.7-2.2c-1.5-1.9-5.3,0.9-5.8-2.9
		C114.4,39.7,114.4,39.7,117.1,48C117,48.1,117.1,48,117.1,48z"/>
	<path class="st1" d="M88,44.9c0,1.3-0.6,2-1.9,2.1c-2-2.1-3.1,0.7-4.7,0.9c-1.6,0.2-3.1,1-4.7-0.5c-1-1-0.5-2-0.2-2.7
		c0.8-1.7,2.6-1.6,3.9-1.1C83,44.3,85.8,43,88,44.9z"/>
	<path class="st1" d="M506,212.2c-2.1,2-4.2,4.1-6.4,6.1c-1.4,1.3-2.8,0.7-3.7-0.6c-1.1-1.7,0.6-2.1,1.6-2.8c2-1.4,4.3-2.3,5.7-4.6
		c0.8-1.3,2-0.5,2.8,0.5C506,211.3,506,211.7,506,212.2z"/>
	<path class="st1" d="M127.4,34c0.9,0,1.9-0.1,2.5,0.8c0.4,2.5-0.7,3.6-3.2,3.6c-2.6,0-5.3,0.5-6.7-2.5c-0.6-1.2,0.7-1.9,2.8-2.1
		C124.3,33.5,125.7,36.2,127.4,34z"/>
	<path class="st1" d="M458.9,93c-0.5,0-1,0-1.6,0c-0.7-2-2.4-4,1.2-5.4c2-0.8,0-3.5,1.3-4.9c0.3,0.8,1,1.2,1.8,1.3
		c-0.8,2.2,0.4,3,2.4,3.1c0.9,0,1.8,0.2,1.8,1.3c0,0.9-1.2,1-1.7,1.5C462.6,91.4,458.6,88.7,458.9,93z"/>
	<path class="st1" d="M331.8,35.5c6.5-4.6,12.5-0.3,18-1.9C344.4,36.2,338.7,35.8,331.8,35.5z"/>
	<path class="st1" d="M103.7,45.1c-0.8,0-1.7,0-2.5,0c0.1-0.2,0.1-0.3,0.2-0.5c-3.6-0.9-5.9-3.5-6.9-5.9c0.9,0.3,2.9,1.5,4.9,1.5
		C103.1,40.2,104.3,41.6,103.7,45.1z"/>
	<path class="st1" d="M343.4,42.2c-1,3.1-7.9,1.1-6.1,7.1c0.3-0.2-0.1,0.2-0.3,0.1c-1.9-0.7-5.2,0.5-5.7-1.9c-0.4-2,2.9-2,4.3-3.4
		C337.6,42.1,340.5,41.6,343.4,42.2z"/>
	<path class="st1" d="M503.7,200.8c4.2,1,4.9,5.2,8.5,4.5c0.7-0.1,0.8,1.2,0.3,1.5c-1.7,1-1.9,3.7-4,4c-0.6,0.1-2.2-1.8-2.1-2.5
		C506.9,205.7,506,203.5,503.7,200.8z"/>
	<path class="st1" d="M462.8,45.7c-1.6,0.3-3.2,0.6-4.9,0.9c0.7-2.4-0.9-2.7-2.6-3.2c-1-0.3-2-0.8-1.9-1.9c0.2-1.4,1.6-1.1,2.4-0.9
		c2.7,0.6,5.6-1,8.8,1C462.5,42.5,459.9,43.4,462.8,45.7z"/>
	<path class="st0" d="M316,55.1c-4.2,5.1-8,5.2-10.7,0c2-0.9,3.9,0.4,5.8,0.2c1.3-0.2,3.8,0.8,3-2.2C315.5,53,316.1,53.7,316,55.1z"
		/>
	<path class="st1" d="M223.5,57.9c5.6-3,9-3.2,11.8-1C229.6,59.9,229.6,59.9,223.5,57.9z"/>
	<path class="st1" d="M149,122.1c-2.1,1.3-3.8,1.4-5.7-0.6c-2.5-2.5-6.1-1.7-9.3-2.3C138,116.5,143.9,117.7,149,122.1
		C148.9,122.2,149,122.1,149,122.1z"/>
	<path class="st1" d="M432.7,158.7c-2-1.2-3.6,0-5.3,0.5c-0.7-3.3,0-6.1,1.1-9.2C430.8,152.4,431.7,155.3,432.7,158.7z"/>
	<path class="st1" d="M176,77c-0.9,1.9-0.1,2.4,1.7,2.7c1.4,0.3,2.5,2,1.9,3.4c-0.6,1.5-2,0.1-3.1-0.1c-2.2-0.3-4.3-0.8-6.5-1.3
		l0.1,0.1c0.7-0.9,1.3-1.8,2-2.7C173.4,78.4,173.9,76.3,176,77z"/>
	<path class="st1" d="M461.6,84c-0.8-0.1-1.4-0.5-1.8-1.3c0-1.4,0-2.8,0.1-4.2c0.1-1.5-0.1-2.6-2-2.1c0-0.7,0-1.5,0.1-2.2
		c1.6,0.6,2.2-1.9,3.8-1.5C462.9,76.6,462.8,80.3,461.6,84z"/>
	<path class="st1" d="M407,159c0,0,0.1,0,0.1,0c8.7,0.9,9.2,1,13.3,4.6C415.1,162.2,409.9,164.5,407,159z"/>
	<path class="st1" d="M434.7,138.5c1.1-0.3,3.3-2.2,3.5,1.5c0.2,2.2-1.9,2.6-2.8,2.4c-1.3-0.3-2.4-1.7-3.6-2.7
		C432.8,139.6,432.6,137.3,434.7,138.5z"/>
	<path class="st1" d="M429.8,133.9c-0.4-2.7-1.5-5-0.9-7.5c0.2-0.8,0.1-1.9,1.2-1.8c1.2,0,1.8,1.7,1.5,2.1c-2.3,3.4,1.9,3.4,2.8,5.8
		C432,131.1,431.1,132.6,429.8,133.9z"/>
	<path class="st1" d="M248,71c-0.3,2.7-1.3,4.9-5.7,4.3C241.1,71.3,245.2,71.7,248,71C248,71,248,71,248,71z"/>
	<path class="st1" d="M149,122.1C149,122.1,148.9,122.2,149,122.1c3.6-0.1,7.3-0.5,9.8,3.1l0.1,0c-1.6,0-3.5-0.5-4.9,0.1
		C150.4,126.8,149.5,125,149,122.1z"/>
	<path class="st1" d="M463.1,208.4c2.4,2.3,5.1,0.1,6,2.9c0.5,1.5-0.9,2.7-2.3,2.7C464.2,213.9,464.2,211.6,463.1,208.4z"/>
	<path class="st1" d="M78,41.1c5.8-2.3,5.8-2.3,10.9-1.7C86.1,43.1,82.8,42.2,78,41.1z"/>
	<path class="st1" d="M397.3,133.9c0.5,0,1,0,1.5,0c-0.7,3,1,5.2,2.6,7.4c-0.4,0.3-0.8,0.7-1.3,1
		C397.5,140.2,395.7,137.6,397.3,133.9z"/>
	<path class="st2" d="M160.9,85.6c2.4-1.5-0.7-4,1-5.6c1.3,2.1,1.8,4.9,4.7,5.9C164.7,85.3,162.7,89.1,160.9,85.6z"/>
	<path class="st1" d="M134,136.9c0-1-0.2-2.2,0.9-2.9c0.4,2.6,1.9,4,4.6,3.9c1.4,0,1.5,0.9,1.2,1.9c-0.4,1.4-1.1,1.1-2.1,0.4
		C137,139.1,134.9,138.8,134,136.9z"/>
	<path class="st3" d="M130,50c1.2,0.3,2.8-0.8,3.5,0.6c0.3,0.6-0.3,2.1-1.6,2.6c-1.5,0.6-2.8,1.2-3.3-1.1c-0.2-0.9-1-0.4-1.6-0.4
		C127.7,50.5,128.7,50,130,50z"/>
	<path class="st1" d="M370.7,137.1c0.9-0.2,1.5,0.1,1.9,1.2c0.5,1.2,0.9,2.4,0.3,3.7c-0.2,0.4-1.1,0.9-1.3,0.7
		c-1.1-0.9-1.5-2.1-1-3.8c0.2-0.6,0.1-1.3,0.2-1.9C370.8,137,370.7,137.1,370.7,137.1z"/>
	<path class="st1" d="M89.7,107.8c0.5-1.3,0.9-3.2,2.8-2.2c1,0.5,2.1,2.1,2,3.1c-0.3,2.1-2.3,0.9-3.6,1.2
		C90.5,109.3,90.1,108.6,89.7,107.8z"/>
	<path class="st2" d="M151,36.7c3.3-0.7,6.5-3.2,10.1-0.7c-1.4,1.7-3.3,0.8-5,1.1c-1.5,0.2-3.5-0.6-3.8,1.9
		C150.9,38.7,151,37.6,151,36.7z"/>
	<path class="st1" d="M129.1,40.9c3.3,0.3,6.7-2.4,10,0.2c-0.1,0.3-0.1,0.7-0.2,1c-3.3-0.1-6.7-0.3-10-0.4
		C128.8,41.4,128.8,41.2,129.1,40.9z"/>
	<path class="st1" d="M93.9,113.3c0.1-0.5,0.1-0.9,0.2-1.4c2.5,1.1,2.5,3.8,3.8,5.8C95.7,117,94.1,115.8,93.9,113.3z"/>
	<path class="st1" d="M323.2,54.9c-1,0-2,0.4-2.9-0.4c-0.8-0.5-1.9-1-1.6-2c0.3-1,1.6-0.7,2.5-0.7c0.8,0,2.1,0,1.3,1.6
		C322.2,53.7,322.9,54.4,323.2,54.9z"/>
	<path class="st2" d="M176,77c-2.1-0.7-2.6,1.5-3.9,2.3c-0.4-0.4-0.9-0.9-1.3-1.3c0.1-2.9,3.3-1.2,4.2-2.9
		C175.8,75.4,176,76.1,176,77z"/>
	<path class="st1" d="M88.2,49c2.6,0.7,2,2.7,2.4,4.5c-1.7,0.3-1.7-1.3-2.7-1.5C88,51,88.1,50,88.2,49z"/>
	<path class="st1" d="M134,45.4c-0.1,1.1,0.1,2.5-1.5,2.4c-1.9-0.1-1.4-1.7-1.4-2.9C132,45,133,45.2,134,45.4z"/>
	<path class="st1" d="M135,59.7c0-0.9,0-1.8,0-2.7c5.3,0.1,2.1,2.3,1,4C135.7,60.5,135.3,60.1,135,59.7z"/>
	<path class="st2" d="M159.1,80.3c-0.9,1.2-2.1,1.4-3.5,1.4c0.4-2,1.9-2.3,3.5-2.6C159,79.6,159.1,79.9,159.1,80.3z"/>
	<path class="st1" d="M299.1,63.9c0.4-0.7,0.8-1.8,1.3-1.9c1.1-0.2,0.8,1.1,0.9,1.7c0.3,2.1-1.4,1-2.2,1.3
		C299,64.6,299,64.2,299.1,63.9z"/>
	<path class="st3" d="M121.3,45c-0.5,0.7-1.2,1.1-2.1,0.8c-0.5-0.2-0.7-0.7-0.3-1.1c0.5-0.4,1.1-0.6,1.7-0.7
		C121.1,44.1,121.6,44.3,121.3,45z"/>
	<path class="st2" d="M170.1,81.8c-0.1,0.9,0.4,1.9-0.7,2.4c-0.2,0.1-0.9-0.4-1-0.8C168.1,82,169.3,82.2,170.1,81.8
		C170.1,81.9,170.1,81.8,170.1,81.8z"/>
	<path class="st1" d="M403,149.1c0-0.9,0.1-1.6,0.9-2.1C405.7,148.6,404.2,148.8,403,149.1z"/>
	<path class="st4" d="M135,59.7c0.4,0.4,0.7,0.9,1.1,1.3c-1.3,1.5-1.7,0.7-2-0.7C134.3,60.1,134.6,59.9,135,59.7z"/>
	<path class="st1" d="M428,99c-0.3-0.4-0.5-0.8-0.8-1.3c0.7-0.6,1.9-1.4,2.4-0.5C430.1,98.2,428.9,98.7,428,99z"/>
	<path class="st5" d="M149.1,56.2c0,0.2,0,0.5,0,0.7c-0.4,0-0.9-0.1-1.3-0.1c0,0,0.1,0.1,0.1,0.1C148.3,56.6,148.7,56.4,149.1,56.2z
		"/>
	<path class="st1" d="M364.9,48.3c-0.5,0.2-1.1,0.5-1.6,0.7c0.1-0.4-0.1-1,0.2-1.2C364.1,47.3,364.6,47.6,364.9,48.3z"/>
	<path class="st1" d="M126.1,42c-0.6,0.1-1.2,0.2-1.9,0.4c-0.3-0.3-0.5-0.6-0.8-0.8C124.5,40.6,125.4,40.9,126.1,42z"/>
	<path class="st4" d="M144.3,61.1c-0.2,0.3-0.3,0.6-0.5,0.9c-0.7-0.1-1.6,0.4-1.9-0.8C142.7,61.2,143.5,61.2,144.3,61.1z"/>
	<path class="st6" d="M160.2,125.1c0.2-0.1,0.4-0.3,0.6-0.4C160.4,124.6,160.1,124.6,160.2,125.1
		C160.1,125.1,160.2,125.1,160.2,125.1z"/>
	<path class="st1" d="M291,65.5c0,0.5,0,0.9,0,1.4c-0.6,0-0.9-0.4-0.7-0.9C290.4,65.7,290.8,65.6,291,65.5z"/>
	<path class="st1" d="M353.9,48.6c0.1,0.7,0.1,1.4,0.2,2.1c-0.3,0.1-0.7,0.2-1,0.3c0,0,0.1,0.1,0.1,0.1
		C353.5,50.3,352.7,49.1,353.9,48.6z"/>
	<path class="st1" d="M360.2,47c-0.9,0-1.7-0.1-2.2-1.1C358.8,46.2,360.1,45.5,360.2,47z"/>
	<path class="st1" d="M491.8,62.3c0.1,0.5,0.1,1,0.2,1.5c-0.3,0.1-0.7,0.1-1,0.2c0,0-0.1-0.1-0.1-0.1
		C490.7,63.1,491.2,62.7,491.8,62.3z"/>
	<path class="st1" d="M459.1,95.2c0-0.5,0-1,0-1.4C460,94.3,460.1,94.8,459.1,95.2z"/>
	<path class="st3" d="M124,50.9c-0.6,0-1.2,0-0.7-0.9C123.6,50.3,123.8,50.6,124,50.9z"/>
	<path class="st6" d="M158.8,125.2c0.5,0,1,0,1.4,0c0,0-0.1,0-0.1,0C159.7,125.1,159.3,125.1,158.8,125.2
		C158.9,125.1,158.8,125.2,158.8,125.2z"/>
	<path class="st1" d="M358.2,54.8c0.2-0.3,0.5-0.6,0.7-0.8C358.7,54.3,358.4,54.5,358.2,54.8z"/>
	<path class="st1" d="M373,45.4c0,0.2,0,0.3,0,0.5c-0.2-0.2-0.3-0.3-0.5-0.5C372.7,45.4,372.9,45.4,373,45.4z"/>
	<path class="st1" d="M506,212.2c0-0.5,0-0.9,0-1.4C507.2,211.3,507,211.7,506,212.2z"/>
	<path class="st0" d="M304.8,107c-0.6,0-1.2,0-1.8,0c-5.1-1-10.5-0.9-15.4-3.1c-0.1-0.1-0.4,0-0.5,0.1c-4.5,6.7-8.9-0.9-13.5-0.1
		c-1.1,0.2-2.6-1.2-2.5-2c0.9-5.1-2.8-3.5-5.2-3.9c-5.8-0.9-11.2,2.8-17,1.8c0-0.5,0-1.1,0.1-1.1c3.5-1,6.4-2.3,8.3-6.1
		c2.2-4.5,7.6-3.7,11.5-5.4c1.4-0.6,1.8,1.2,2.7,1.7c1.5,0.8,1.9,3.4,4.4,2.5c1,0.9,1.9,1.7,2.9,2.5c0.6,0.5-1.6,2,0.7,1.9
		c1.9-0.1,0.5-2.1,1.7-2.9c1.2-0.8-0.6-1.1-1-1.3c-1.3-0.7-2.7-1.2-4.1-1.8c0.5-1.9-3.7-2.5-1.7-4.2c1-0.9,3.1,1.5,4.5,2.1
		c4.2,1.6,5.4,5.8,8.5,8.3c-0.4,0.8-0.7,1.7,0.4,2c1.6,0.4,1.3-0.9,1.4-1.9c0,0-0.1,0.1-0.1,0.1c0.4-0.1,1.2-0.3,1.3-0.4
		c0.1-0.9-0.8-0.7-1.3-0.9c0.5-4.9,3.3-2.2,5.5-1.7l0.1,0.1c0.1,2.3,0.7,4.5,3,5.2c2,0.6,4.6,1.1,6.3,0.4c1.3-0.6,2.8-1.1,3.4-0.6
		c1.4,1.1,0.2,2.7-0.3,4C306.5,103.9,305.6,105.4,304.8,107z"/>
	<path class="st1" d="M276,89.9c1.4,0.6,2.8,1,4.1,1.8c0.4,0.2,2.2,0.5,1,1.3c-1.3,0.8,0.2,2.9-1.7,2.9c-2.3,0.1,0-1.4-0.7-1.9
		c-1-0.8-1.9-1.7-2.9-2.5C275.9,90.9,276,90.4,276,89.9z"/>
	<path class="st1" d="M294.6,93.1c0.9-1.8,2-2.7,4-1.3C297.5,93.6,295.9,92.8,294.6,93.1C294.6,93.2,294.6,93.1,294.6,93.1z"/>
	<path class="st1" d="M289.2,96.1c0,0.9,0.2,2.2-1.4,1.9c-1.1-0.3-0.8-1.2-0.4-2C288,96,288.6,96.1,289.2,96.1z"/>
	<path class="st1" d="M303.3,54.6c-0.3-0.1-0.7-0.2-0.8-0.4c-0.1-0.2,0.2-0.5,0.3-0.8c0.3,0.1,0.7,0.2,0.8,0.4
		C303.6,54,303.4,54.4,303.3,54.6z"/>
	<path class="st1" d="M303.9,63.5c-0.2,0.2-0.3,0.5-0.5,0.7c-0.1-0.3-0.4-0.5-0.3-0.8c0-0.2,0.3-0.5,0.4-0.7
		C303.7,63,303.8,63.3,303.9,63.5z"/>
	<path class="st1" d="M375.7,47.1c-0.2,0.2-0.4,0.4-0.6,0.6c-0.1-0.2-0.3-0.5-0.3-0.7c0-0.1,0.3-0.3,0.3-0.3
		C375.3,46.8,375.5,47,375.7,47.1z"/>
	<path class="st1" d="M289.1,94.8c0.5,0.2,1.4,0,1.3,0.9c0,0.2-0.8,0.3-1.3,0.4C289.1,95.7,289.1,95.3,289.1,94.8z"/>
	<path class="st7" d="M353,51c0.3-0.1,0.7-0.2,1-0.3c0.2,0.5,1,1.1-0.1,1.3C353.3,52.1,352.5,52,353,51z"/>
	<path class="st1" d="M104.6,53.1c-4.3-0.6-7.7,1.8-11.4,0.3C96.9,54,99.8,48.8,104.6,53.1z"/>
	<path class="st1" d="M135.8,50c-0.1,0.1-0.1,0.2-0.2,0.3c-0.1-0.2-0.3-0.3-0.4-0.5c0.1-0.1,0.2-0.2,0.3-0.2
		C135.6,49.7,135.7,49.9,135.8,50z"/>
	<path class="st7" d="M183.7,151.6c-0.1,0.7-0.6,1.5-1.2,1.1c-0.8-0.5-0.6-1.4,0.3-1.9C183.1,151.1,183.4,151.3,183.7,151.6z"/>
	<path class="st1" d="M134.6,34.9c-0.3-0.1-0.5-0.2-0.8-0.3c0.3-0.2,0.6-0.5,0.9-0.5c0.2,0,0.5,0.3,0.7,0.4
		C135.1,34.7,134.8,34.8,134.6,34.9z"/>
</g>
<path class="st8" d="M150.9,74.3c0.4,0,0.8,0,1.1,0.2c0.2,0.1,0.3,0.1,0.5,0.2c0.1,0.1,0.2,0.1,0.3,0.2c0.1,0.1,0.2,0.1,0.3,0.2
	c0.1,0.1,0.2,0.1,0.2,0.2c0.1,0.1,0.2,0.3,0.3,0.4c0.1,0.1,0.2,0.3,0.2,0.4c0.1,0.3,0.2,0.6,0.3,0.9c0,0.2,0,0.4,0.1,0.6
	c0,0.2,0,0.3-0.1,0.5c-0.1,0.2-0.1,0.4-0.2,0.6c-0.1,0.1-0.1,0.3-0.2,0.4c-0.1,0.2-0.2,0.4-0.3,0.6c-0.1,0.1-0.1,0.3-0.2,0.4
	c-0.1,0.1-0.1,0.3-0.2,0.4s-0.1,0.3-0.2,0.4c-0.1,0.1-0.2,0.3-0.2,0.4c-0.1,0.1-0.2,0.3-0.2,0.4c-0.1,0.1-0.2,0.3-0.2,0.4
	c-0.1,0.1-0.2,0.3-0.2,0.4c-0.1,0.1-0.2,0.3-0.3,0.4c-0.1,0.1-0.2,0.3-0.2,0.4c-0.1,0.1-0.2,0.3-0.3,0.4c-0.1,0.1-0.1,0.2-0.2,0.2
	c0,0,0,0,0,0c-0.1-0.1-0.2-0.3-0.3-0.4c-0.1-0.1-0.2-0.3-0.3-0.4c-0.1-0.1-0.2-0.3-0.2-0.4c-0.1-0.1-0.2-0.3-0.3-0.4
	c-0.1-0.1-0.2-0.3-0.2-0.4c-0.1-0.1-0.2-0.3-0.3-0.4c-0.1-0.1-0.2-0.3-0.2-0.4c-0.1-0.2-0.2-0.4-0.3-0.6c-0.1-0.1-0.1-0.3-0.2-0.4
	c-0.1-0.2-0.2-0.4-0.3-0.6c-0.1-0.1-0.1-0.3-0.2-0.4c-0.1-0.2-0.2-0.4-0.3-0.6c-0.1-0.2-0.1-0.4-0.2-0.7c0-0.2,0-0.3,0-0.5
	c0-0.2,0-0.3,0.1-0.5c0-0.2,0.1-0.4,0.1-0.6c0.1-0.1,0.1-0.3,0.2-0.4c0.1-0.1,0.2-0.3,0.3-0.4c0.1-0.1,0.1-0.1,0.2-0.2
	c0.1-0.1,0.1-0.1,0.2-0.2c0.1-0.1,0.2-0.1,0.3-0.2c0.1-0.1,0.2-0.1,0.3-0.2c0.2-0.1,0.3-0.1,0.5-0.2
	C150.2,74.3,150.6,74.3,150.9,74.3z M151,78.6c0.1,0,0.3,0,0.4-0.1c0.1-0.1,0.3-0.1,0.4-0.2c0.1-0.1,0.1-0.1,0.2-0.2
	c0.1-0.1,0.1-0.3,0.2-0.4c0-0.2,0-0.4-0.1-0.6c-0.1-0.2-0.2-0.3-0.3-0.4c-0.1-0.1-0.2-0.2-0.4-0.2c-0.3-0.1-0.5-0.1-0.8,0
	c-0.1,0.1-0.3,0.1-0.4,0.2c-0.1,0.1-0.1,0.1-0.2,0.2c-0.1,0.1-0.1,0.3-0.2,0.4c0,0.2,0,0.4,0.1,0.6c0.1,0.2,0.2,0.3,0.3,0.4
	c0.1,0.1,0.2,0.2,0.4,0.2C150.7,78.6,150.8,78.6,151,78.6z"/>
<path class="st8" d="M89.7,96.4c0.4,0,0.8,0,1.1,0.2c0.2,0.1,0.3,0.1,0.5,0.2c0.1,0.1,0.2,0.1,0.3,0.2c0.1,0.1,0.2,0.1,0.3,0.2
	c0.1,0.1,0.2,0.1,0.2,0.2c0.1,0.1,0.2,0.3,0.3,0.4c0.1,0.1,0.2,0.3,0.2,0.4c0.1,0.3,0.2,0.6,0.3,0.9c0,0.2,0,0.4,0.1,0.6
	c0,0.2,0,0.3-0.1,0.5c-0.1,0.2-0.1,0.4-0.2,0.6c-0.1,0.1-0.1,0.3-0.2,0.4c-0.1,0.2-0.2,0.4-0.3,0.6c-0.1,0.1-0.1,0.3-0.2,0.4
	c-0.1,0.1-0.1,0.3-0.2,0.4c-0.1,0.1-0.1,0.3-0.2,0.4c-0.1,0.1-0.2,0.3-0.2,0.4c-0.1,0.1-0.2,0.3-0.2,0.4c-0.1,0.1-0.2,0.3-0.2,0.4
	c-0.1,0.1-0.2,0.3-0.2,0.4c-0.1,0.1-0.2,0.3-0.3,0.4c-0.1,0.1-0.2,0.3-0.2,0.4c-0.1,0.1-0.2,0.3-0.3,0.4c-0.1,0.1-0.1,0.2-0.2,0.2
	c0,0,0,0,0,0c-0.1-0.1-0.2-0.3-0.3-0.4c-0.1-0.1-0.2-0.3-0.3-0.4c-0.1-0.1-0.2-0.3-0.2-0.4c-0.1-0.1-0.2-0.3-0.3-0.4
	c-0.1-0.1-0.2-0.3-0.2-0.4c-0.1-0.1-0.2-0.3-0.3-0.4c-0.1-0.1-0.2-0.3-0.2-0.4c-0.1-0.2-0.2-0.4-0.3-0.6c-0.1-0.1-0.1-0.3-0.2-0.4
	c-0.1-0.2-0.2-0.4-0.3-0.6c-0.1-0.1-0.1-0.3-0.2-0.4c-0.1-0.2-0.2-0.4-0.3-0.6c-0.1-0.2-0.1-0.4-0.2-0.7c0-0.2,0-0.3,0-0.5
	c0-0.2,0-0.3,0.1-0.5c0-0.2,0.1-0.4,0.1-0.6c0.1-0.1,0.1-0.3,0.2-0.4c0.1-0.1,0.2-0.3,0.3-0.4c0.1-0.1,0.1-0.1,0.2-0.2
	c0.1-0.1,0.1-0.1,0.2-0.2c0.1-0.1,0.2-0.1,0.3-0.2c0.1-0.1,0.2-0.1,0.3-0.2c0.2-0.1,0.3-0.1,0.5-0.2C88.9,96.4,89.3,96.4,89.7,96.4z
	 M89.7,100.7c0.1,0,0.3,0,0.4-0.1c0.1-0.1,0.3-0.1,0.4-0.2c0.1-0.1,0.1-0.1,0.2-0.2c0.1-0.1,0.1-0.3,0.2-0.4c0-0.2,0-0.4-0.1-0.6
	c-0.1-0.2-0.2-0.3-0.3-0.4c-0.1-0.1-0.2-0.2-0.4-0.2c-0.3-0.1-0.5-0.1-0.8,0c-0.1,0.1-0.3,0.1-0.4,0.2c-0.1,0.1-0.1,0.1-0.2,0.2
	c-0.1,0.1-0.1,0.3-0.2,0.4c0,0.2,0,0.4,0.1,0.6c0.1,0.2,0.2,0.3,0.3,0.4c0.1,0.1,0.2,0.2,0.4,0.2C89.4,100.7,89.6,100.7,89.7,100.7z
	"/>
<path class="st8" d="M453.4,91.3c0.4,0,0.8,0,1.1,0.2c0.2,0.1,0.3,0.1,0.5,0.2c0.1,0.1,0.2,0.1,0.3,0.2c0.1,0.1,0.2,0.1,0.3,0.2
	c0.1,0.1,0.2,0.1,0.2,0.2c0.1,0.1,0.2,0.3,0.3,0.4c0.1,0.1,0.2,0.3,0.2,0.4c0.1,0.3,0.2,0.6,0.3,0.9c0,0.2,0,0.4,0.1,0.6
	c0,0.2,0,0.3-0.1,0.5c-0.1,0.2-0.1,0.4-0.2,0.6c-0.1,0.1-0.1,0.3-0.2,0.4c-0.1,0.2-0.2,0.4-0.3,0.6c-0.1,0.1-0.1,0.3-0.2,0.4
	c-0.1,0.1-0.1,0.3-0.2,0.4c-0.1,0.1-0.1,0.3-0.2,0.4c-0.1,0.1-0.2,0.3-0.2,0.4c-0.1,0.1-0.2,0.3-0.2,0.4c-0.1,0.1-0.2,0.3-0.2,0.4
	c-0.1,0.1-0.2,0.3-0.2,0.4c-0.1,0.1-0.2,0.3-0.3,0.4c-0.1,0.1-0.2,0.3-0.2,0.4c-0.1,0.1-0.2,0.3-0.3,0.4c-0.1,0.1-0.1,0.2-0.2,0.2
	c0,0,0,0,0,0c-0.1-0.1-0.2-0.3-0.3-0.4c-0.1-0.1-0.2-0.3-0.3-0.4c-0.1-0.1-0.2-0.3-0.2-0.4c-0.1-0.1-0.2-0.3-0.3-0.4
	c-0.1-0.1-0.2-0.3-0.2-0.4c-0.1-0.1-0.2-0.3-0.3-0.4c-0.1-0.1-0.2-0.3-0.2-0.4c-0.1-0.2-0.2-0.4-0.3-0.6c-0.1-0.1-0.1-0.3-0.2-0.4
	c-0.1-0.2-0.2-0.4-0.3-0.6c-0.1-0.1-0.1-0.3-0.2-0.4c-0.1-0.2-0.2-0.4-0.3-0.6c-0.1-0.2-0.1-0.4-0.2-0.7c0-0.2,0-0.3,0-0.5
	c0-0.2,0-0.3,0.1-0.5c0-0.2,0.1-0.4,0.1-0.6c0.1-0.1,0.1-0.3,0.2-0.4c0.1-0.1,0.2-0.3,0.3-0.4c0.1-0.1,0.1-0.1,0.2-0.2
	c0.1-0.1,0.1-0.1,0.2-0.2c0.1-0.1,0.2-0.1,0.3-0.2c0.1-0.1,0.2-0.1,0.3-0.2c0.2-0.1,0.3-0.1,0.5-0.2C452.6,91.4,453,91.3,453.4,91.3
	z M453.4,95.7c0.1,0,0.3,0,0.4-0.1c0.1-0.1,0.3-0.1,0.4-0.2c0.1-0.1,0.1-0.1,0.2-0.2c0.1-0.1,0.1-0.3,0.2-0.4c0-0.2,0-0.4-0.1-0.6
	c-0.1-0.2-0.2-0.3-0.3-0.4c-0.1-0.1-0.2-0.2-0.4-0.2c-0.3-0.1-0.5-0.1-0.8,0c-0.1,0.1-0.3,0.1-0.4,0.2c-0.1,0.1-0.1,0.1-0.2,0.2
	c-0.1,0.1-0.1,0.3-0.2,0.4c0,0.2,0,0.4,0.1,0.6c0.1,0.2,0.2,0.3,0.3,0.4c0.1,0.1,0.2,0.2,0.4,0.2C453.2,95.6,453.3,95.7,453.4,95.7z
	"/>
<path class="st8" d="M263.5,74.3c0.4,0,0.8,0,1.1,0.2c0.2,0.1,0.3,0.1,0.5,0.2c0.1,0.1,0.2,0.1,0.3,0.2c0.1,0.1,0.2,0.1,0.3,0.2
	c0.1,0.1,0.2,0.1,0.2,0.2c0.1,0.1,0.2,0.3,0.3,0.4c0.1,0.1,0.2,0.3,0.2,0.4c0.1,0.3,0.2,0.6,0.3,0.9c0,0.2,0,0.4,0.1,0.6
	c0,0.2,0,0.3-0.1,0.5c-0.1,0.2-0.1,0.4-0.2,0.6c-0.1,0.1-0.1,0.3-0.2,0.4c-0.1,0.2-0.2,0.4-0.3,0.6c-0.1,0.1-0.1,0.3-0.2,0.4
	c-0.1,0.1-0.1,0.3-0.2,0.4c-0.1,0.1-0.1,0.3-0.2,0.4c-0.1,0.1-0.2,0.3-0.2,0.4c-0.1,0.1-0.2,0.3-0.2,0.4c-0.1,0.1-0.2,0.3-0.2,0.4
	c-0.1,0.1-0.2,0.3-0.2,0.4c-0.1,0.1-0.2,0.3-0.3,0.4c-0.1,0.1-0.2,0.3-0.2,0.4c-0.1,0.1-0.2,0.3-0.3,0.4c-0.1,0.1-0.1,0.2-0.2,0.2
	c0,0,0,0,0,0c-0.1-0.1-0.2-0.3-0.3-0.4c-0.1-0.1-0.2-0.3-0.3-0.4c-0.1-0.1-0.2-0.3-0.2-0.4c-0.1-0.1-0.2-0.3-0.3-0.4
	c-0.1-0.1-0.2-0.3-0.2-0.4c-0.1-0.1-0.2-0.3-0.3-0.4c-0.1-0.1-0.2-0.3-0.2-0.4c-0.1-0.2-0.2-0.4-0.3-0.6c-0.1-0.1-0.1-0.3-0.2-0.4
	c-0.1-0.2-0.2-0.4-0.3-0.6c-0.1-0.1-0.1-0.3-0.2-0.4c-0.1-0.2-0.2-0.4-0.3-0.6c-0.1-0.2-0.1-0.4-0.2-0.7c0-0.2,0-0.3,0-0.5
	c0-0.2,0-0.3,0.1-0.5c0-0.2,0.1-0.4,0.1-0.6c0.1-0.1,0.1-0.3,0.2-0.4c0.1-0.1,0.2-0.3,0.3-0.4c0.1-0.1,0.1-0.1,0.2-0.2
	c0.1-0.1,0.1-0.1,0.2-0.2c0.1-0.1,0.2-0.1,0.3-0.2c0.1-0.1,0.2-0.1,0.3-0.2c0.2-0.1,0.3-0.1,0.5-0.2
	C262.8,74.4,263.2,74.3,263.5,74.3z M263.6,78.6c0.1,0,0.3,0,0.4-0.1c0.1-0.1,0.3-0.1,0.4-0.2c0.1-0.1,0.1-0.1,0.2-0.2
	c0.1-0.1,0.1-0.3,0.2-0.4c0-0.2,0-0.4-0.1-0.6c-0.1-0.2-0.2-0.3-0.3-0.4c-0.1-0.1-0.2-0.2-0.4-0.2c-0.3-0.1-0.5-0.1-0.8,0
	c-0.1,0.1-0.3,0.1-0.4,0.2c-0.1,0.1-0.1,0.1-0.2,0.2c-0.1,0.1-0.1,0.3-0.2,0.4c0,0.2,0,0.4,0.1,0.6c0.1,0.2,0.2,0.3,0.3,0.4
	c0.1,0.1,0.2,0.2,0.4,0.2C263.3,78.6,263.4,78.6,263.6,78.6z"/>
<path class="st8" d="M290.6,186.6c0.4,0,0.8,0,1.1,0.2c0.2,0.1,0.3,0.1,0.5,0.2c0.1,0.1,0.2,0.1,0.3,0.2c0.1,0.1,0.2,0.1,0.3,0.2
	c0.1,0.1,0.2,0.1,0.2,0.2c0.1,0.1,0.2,0.3,0.3,0.4c0.1,0.1,0.2,0.3,0.2,0.4c0.1,0.3,0.2,0.6,0.3,0.9c0,0.2,0,0.4,0.1,0.6
	c0,0.2,0,0.3-0.1,0.5c-0.1,0.2-0.1,0.4-0.2,0.6c-0.1,0.1-0.1,0.3-0.2,0.4c-0.1,0.2-0.2,0.4-0.3,0.6c-0.1,0.1-0.1,0.3-0.2,0.4
	c-0.1,0.1-0.1,0.3-0.2,0.4c-0.1,0.1-0.1,0.3-0.2,0.4c-0.1,0.1-0.2,0.3-0.2,0.4c-0.1,0.1-0.2,0.3-0.2,0.4c-0.1,0.1-0.2,0.3-0.2,0.4
	c-0.1,0.1-0.2,0.3-0.2,0.4c-0.1,0.1-0.2,0.3-0.3,0.4c-0.1,0.1-0.2,0.3-0.2,0.4c-0.1,0.1-0.2,0.3-0.3,0.4c-0.1,0.1-0.1,0.2-0.2,0.2
	c0,0,0,0,0,0c-0.1-0.1-0.2-0.3-0.3-0.4c-0.1-0.1-0.2-0.3-0.3-0.4c-0.1-0.1-0.2-0.3-0.2-0.4c-0.1-0.1-0.2-0.3-0.3-0.4
	c-0.1-0.1-0.2-0.3-0.2-0.4c-0.1-0.1-0.2-0.3-0.3-0.4c-0.1-0.1-0.2-0.3-0.2-0.4c-0.1-0.2-0.2-0.4-0.3-0.6c-0.1-0.1-0.1-0.3-0.2-0.4
	c-0.1-0.2-0.2-0.4-0.3-0.6c-0.1-0.1-0.1-0.3-0.2-0.4c-0.1-0.2-0.2-0.4-0.3-0.6c-0.1-0.2-0.1-0.4-0.2-0.7c0-0.2,0-0.3,0-0.5
	c0-0.2,0-0.3,0.1-0.5c0-0.2,0.1-0.4,0.1-0.6c0.1-0.1,0.1-0.3,0.2-0.4c0.1-0.1,0.2-0.3,0.3-0.4c0.1-0.1,0.1-0.1,0.2-0.2
	c0.1-0.1,0.1-0.1,0.2-0.2c0.1-0.1,0.2-0.1,0.3-0.2c0.1-0.1,0.2-0.1,0.3-0.2c0.2-0.1,0.3-0.1,0.5-0.2
	C289.9,186.6,290.3,186.6,290.6,186.6z M290.7,190.9c0.1,0,0.3,0,0.4-0.1c0.1-0.1,0.3-0.1,0.4-0.2c0.1-0.1,0.1-0.1,0.2-0.2
	c0.1-0.1,0.1-0.3,0.2-0.4c0-0.2,0-0.4-0.1-0.6c-0.1-0.2-0.2-0.3-0.3-0.4c-0.1-0.1-0.2-0.2-0.4-0.2c-0.3-0.1-0.5-0.1-0.8,0
	c-0.1,0.1-0.3,0.1-0.4,0.2c-0.1,0.1-0.1,0.1-0.2,0.2c-0.1,0.1-0.1,0.3-0.2,0.4c0,0.2,0,0.4,0.1,0.6c0.1,0.2,0.2,0.3,0.3,0.4
	c0.1,0.1,0.2,0.2,0.4,0.2C290.4,190.9,290.5,190.9,290.7,190.9z"/>
<path class="st8" d="M472.4,186.6c0.4,0,0.8,0,1.1,0.2c0.2,0.1,0.3,0.1,0.5,0.2c0.1,0.1,0.2,0.1,0.3,0.2c0.1,0.1,0.2,0.1,0.3,0.2
	c0.1,0.1,0.2,0.1,0.2,0.2c0.1,0.1,0.2,0.3,0.3,0.4c0.1,0.1,0.2,0.3,0.2,0.4c0.1,0.3,0.2,0.6,0.3,0.9c0,0.2,0,0.4,0.1,0.6
	c0,0.2,0,0.3-0.1,0.5c-0.1,0.2-0.1,0.4-0.2,0.6c-0.1,0.1-0.1,0.3-0.2,0.4c-0.1,0.2-0.2,0.4-0.3,0.6c-0.1,0.1-0.1,0.3-0.2,0.4
	c-0.1,0.1-0.1,0.3-0.2,0.4c-0.1,0.1-0.1,0.3-0.2,0.4c-0.1,0.1-0.2,0.3-0.2,0.4c-0.1,0.1-0.2,0.3-0.2,0.4c-0.1,0.1-0.2,0.3-0.2,0.4
	c-0.1,0.1-0.2,0.3-0.2,0.4c-0.1,0.1-0.2,0.3-0.3,0.4c-0.1,0.1-0.2,0.3-0.2,0.4c-0.1,0.1-0.2,0.3-0.3,0.4c-0.1,0.1-0.1,0.2-0.2,0.2
	c0,0,0,0,0,0c-0.1-0.1-0.2-0.3-0.3-0.4c-0.1-0.1-0.2-0.3-0.3-0.4c-0.1-0.1-0.2-0.3-0.2-0.4c-0.1-0.1-0.2-0.3-0.3-0.4
	c-0.1-0.1-0.2-0.3-0.2-0.4c-0.1-0.1-0.2-0.3-0.3-0.4c-0.1-0.1-0.2-0.3-0.2-0.4c-0.1-0.2-0.2-0.4-0.3-0.6c-0.1-0.1-0.1-0.3-0.2-0.4
	c-0.1-0.2-0.2-0.4-0.3-0.6c-0.1-0.1-0.1-0.3-0.2-0.4c-0.1-0.2-0.2-0.4-0.3-0.6c-0.1-0.2-0.1-0.4-0.2-0.7c0-0.2,0-0.3,0-0.5
	c0-0.2,0-0.3,0.1-0.5c0-0.2,0.1-0.4,0.1-0.6c0.1-0.1,0.1-0.3,0.2-0.4c0.1-0.1,0.2-0.3,0.3-0.4c0.1-0.1,0.1-0.1,0.2-0.2
	c0.1-0.1,0.1-0.1,0.2-0.2c0.1-0.1,0.2-0.1,0.3-0.2c0.1-0.1,0.2-0.1,0.3-0.2c0.2-0.1,0.3-0.1,0.5-0.2
	C471.7,186.6,472.1,186.6,472.4,186.6z M472.5,190.9c0.1,0,0.3,0,0.4-0.1c0.1-0.1,0.3-0.1,0.4-0.2c0.1-0.1,0.1-0.1,0.2-0.2
	c0.1-0.1,0.1-0.3,0.2-0.4c0-0.2,0-0.4-0.1-0.6c-0.1-0.2-0.2-0.3-0.3-0.4c-0.1-0.1-0.2-0.2-0.4-0.2c-0.3-0.1-0.5-0.1-0.8,0
	c-0.1,0.1-0.3,0.1-0.4,0.2c-0.1,0.1-0.1,0.1-0.2,0.2c-0.1,0.1-0.1,0.3-0.2,0.4c0,0.2,0,0.4,0.1,0.6c0.1,0.2,0.2,0.3,0.3,0.4
	c0.1,0.1,0.2,0.2,0.4,0.2C472.2,190.9,472.3,190.9,472.5,190.9z"/>
<path class="st8" d="M189.5,168.4c0.4,0,0.8,0,1.1,0.2c0.2,0.1,0.3,0.1,0.5,0.2c0.1,0.1,0.2,0.1,0.3,0.2c0.1,0.1,0.2,0.1,0.3,0.2
	c0.1,0.1,0.2,0.1,0.2,0.2c0.1,0.1,0.2,0.3,0.3,0.4c0.1,0.1,0.2,0.3,0.2,0.4c0.1,0.3,0.2,0.6,0.3,0.9c0,0.2,0,0.4,0.1,0.6
	c0,0.2,0,0.3-0.1,0.5c-0.1,0.2-0.1,0.4-0.2,0.6c-0.1,0.1-0.1,0.3-0.2,0.4c-0.1,0.2-0.2,0.4-0.3,0.6c-0.1,0.1-0.1,0.3-0.2,0.4
	c-0.1,0.1-0.1,0.3-0.2,0.4c-0.1,0.1-0.1,0.3-0.2,0.4c-0.1,0.1-0.2,0.3-0.2,0.4c-0.1,0.1-0.2,0.3-0.2,0.4c-0.1,0.1-0.2,0.3-0.2,0.4
	c-0.1,0.1-0.2,0.3-0.2,0.4c-0.1,0.1-0.2,0.3-0.3,0.4c-0.1,0.1-0.2,0.3-0.2,0.4c-0.1,0.1-0.2,0.3-0.3,0.4c-0.1,0.1-0.1,0.2-0.2,0.2
	c0,0,0,0,0,0c-0.1-0.1-0.2-0.3-0.3-0.4c-0.1-0.1-0.2-0.3-0.3-0.4c-0.1-0.1-0.2-0.3-0.2-0.4c-0.1-0.1-0.2-0.3-0.3-0.4
	c-0.1-0.1-0.2-0.3-0.2-0.4c-0.1-0.1-0.2-0.3-0.3-0.4c-0.1-0.1-0.2-0.3-0.2-0.4c-0.1-0.2-0.2-0.4-0.3-0.6c-0.1-0.1-0.1-0.3-0.2-0.4
	c-0.1-0.2-0.2-0.4-0.3-0.6c-0.1-0.1-0.1-0.3-0.2-0.4c-0.1-0.2-0.2-0.4-0.3-0.6c-0.1-0.2-0.1-0.4-0.2-0.7c0-0.2,0-0.3,0-0.5
	c0-0.2,0-0.3,0.1-0.5c0-0.2,0.1-0.4,0.1-0.6c0.1-0.1,0.1-0.3,0.2-0.4c0.1-0.1,0.2-0.3,0.3-0.4c0.1-0.1,0.1-0.1,0.2-0.2
	c0.1-0.1,0.1-0.1,0.2-0.2c0.1-0.1,0.2-0.1,0.3-0.2c0.1-0.1,0.2-0.1,0.3-0.2c0.2-0.1,0.3-0.1,0.5-0.2
	C188.8,168.4,189.2,168.4,189.5,168.4z M189.5,172.7c0.1,0,0.3,0,0.4-0.1c0.1-0.1,0.3-0.1,0.4-0.2c0.1-0.1,0.1-0.1,0.2-0.2
	c0.1-0.1,0.1-0.3,0.2-0.4c0-0.2,0-0.4-0.1-0.6c-0.1-0.2-0.2-0.3-0.3-0.4c-0.1-0.1-0.2-0.2-0.4-0.2c-0.3-0.1-0.5-0.1-0.8,0
	c-0.1,0.1-0.3,0.1-0.4,0.2c-0.1,0.1-0.1,0.1-0.2,0.2c-0.1,0.1-0.1,0.3-0.2,0.4c0,0.2,0,0.4,0.1,0.6c0.1,0.2,0.2,0.3,0.3,0.4
	c0.1,0.1,0.2,0.2,0.4,0.2C189.3,172.7,189.4,172.7,189.5,172.7z"/>
<path class="st8" d="M264.6,97.9c0.4,0,0.8,0,1.1,0.2c0.2,0.1,0.3,0.1,0.5,0.2c0.1,0.1,0.2,0.1,0.3,0.2c0.1,0.1,0.2,0.1,0.3,0.2
	c0.1,0.1,0.2,0.1,0.2,0.2c0.1,0.1,0.2,0.3,0.3,0.4c0.1,0.1,0.2,0.3,0.2,0.4c0.1,0.3,0.2,0.6,0.3,0.9c0,0.2,0,0.4,0.1,0.6
	c0,0.2,0,0.3-0.1,0.5c-0.1,0.2-0.1,0.4-0.2,0.6c-0.1,0.1-0.1,0.3-0.2,0.4c-0.1,0.2-0.2,0.4-0.3,0.6c-0.1,0.1-0.1,0.3-0.2,0.4
	c-0.1,0.1-0.1,0.3-0.2,0.4c-0.1,0.1-0.1,0.3-0.2,0.4c-0.1,0.1-0.2,0.3-0.2,0.4c-0.1,0.1-0.2,0.3-0.2,0.4c-0.1,0.1-0.2,0.3-0.2,0.4
	c-0.1,0.1-0.2,0.3-0.2,0.4c-0.1,0.1-0.2,0.3-0.3,0.4c-0.1,0.1-0.2,0.3-0.2,0.4c-0.1,0.1-0.2,0.3-0.3,0.4c-0.1,0.1-0.1,0.2-0.2,0.2
	c0,0,0,0,0,0c-0.1-0.1-0.2-0.3-0.3-0.4c-0.1-0.1-0.2-0.3-0.3-0.4c-0.1-0.1-0.2-0.3-0.2-0.4c-0.1-0.1-0.2-0.3-0.3-0.4
	c-0.1-0.1-0.2-0.3-0.2-0.4c-0.1-0.1-0.2-0.3-0.3-0.4c-0.1-0.1-0.2-0.3-0.2-0.4c-0.1-0.2-0.2-0.4-0.3-0.6c-0.1-0.1-0.1-0.3-0.2-0.4
	c-0.1-0.2-0.2-0.4-0.3-0.6c-0.1-0.1-0.1-0.3-0.2-0.4c-0.1-0.2-0.2-0.4-0.3-0.6c-0.1-0.2-0.1-0.4-0.2-0.7c0-0.2,0-0.3,0-0.5
	c0-0.2,0-0.3,0.1-0.5c0-0.2,0.1-0.4,0.1-0.6c0.1-0.1,0.1-0.3,0.2-0.4c0.1-0.1,0.2-0.3,0.3-0.4c0.1-0.1,0.1-0.1,0.2-0.2
	c0.1-0.1,0.1-0.1,0.2-0.2c0.1-0.1,0.2-0.1,0.3-0.2c0.1-0.1,0.2-0.1,0.3-0.2c0.2-0.1,0.3-0.1,0.5-0.2C263.9,98,264.3,97.9,264.6,97.9
	z M264.7,102.2c0.1,0,0.3,0,0.4-0.1c0.1-0.1,0.3-0.1,0.4-0.2c0.1-0.1,0.1-0.1,0.2-0.2c0.1-0.1,0.1-0.3,0.2-0.4c0-0.2,0-0.4-0.1-0.6
	c-0.1-0.2-0.2-0.3-0.3-0.4c-0.1-0.1-0.2-0.2-0.4-0.2c-0.3-0.1-0.5-0.1-0.8,0c-0.1,0.1-0.3,0.1-0.4,0.2c-0.1,0.1-0.1,0.1-0.2,0.2
	c-0.1,0.1-0.1,0.3-0.2,0.4c0,0.2,0,0.4,0.1,0.6c0.1,0.2,0.2,0.3,0.3,0.4c0.1,0.1,0.2,0.2,0.4,0.2
	C264.4,102.2,264.6,102.2,264.7,102.2z"/>
<path class="st8" d="M374.7,109.9c0.4,0,0.8,0,1.1,0.2c0.2,0.1,0.3,0.1,0.5,0.2c0.1,0.1,0.2,0.1,0.3,0.2c0.1,0.1,0.2,0.1,0.3,0.2
	c0.1,0.1,0.2,0.1,0.2,0.2c0.1,0.1,0.2,0.3,0.3,0.4c0.1,0.1,0.2,0.3,0.2,0.4c0.1,0.3,0.2,0.6,0.3,0.9c0,0.2,0,0.4,0.1,0.6
	c0,0.2,0,0.3-0.1,0.5c-0.1,0.2-0.1,0.4-0.2,0.6c-0.1,0.1-0.1,0.3-0.2,0.4c-0.1,0.2-0.2,0.4-0.3,0.6c-0.1,0.1-0.1,0.3-0.2,0.4
	c-0.1,0.1-0.1,0.3-0.2,0.4c-0.1,0.1-0.1,0.3-0.2,0.4c-0.1,0.1-0.2,0.3-0.2,0.4c-0.1,0.1-0.2,0.3-0.2,0.4c-0.1,0.1-0.2,0.3-0.2,0.4
	c-0.1,0.1-0.2,0.3-0.2,0.4c-0.1,0.1-0.2,0.3-0.3,0.4c-0.1,0.1-0.2,0.3-0.2,0.4c-0.1,0.1-0.2,0.3-0.3,0.4c-0.1,0.1-0.1,0.2-0.2,0.2
	c0,0,0,0,0,0c-0.1-0.1-0.2-0.3-0.3-0.4c-0.1-0.1-0.2-0.3-0.3-0.4c-0.1-0.1-0.2-0.3-0.2-0.4c-0.1-0.1-0.2-0.3-0.3-0.4
	c-0.1-0.1-0.2-0.3-0.2-0.4c-0.1-0.1-0.2-0.3-0.3-0.4c-0.1-0.1-0.2-0.3-0.2-0.4c-0.1-0.2-0.2-0.4-0.3-0.6c-0.1-0.1-0.1-0.3-0.2-0.4
	c-0.1-0.2-0.2-0.4-0.3-0.6c-0.1-0.1-0.1-0.3-0.2-0.4c-0.1-0.2-0.2-0.4-0.3-0.6c-0.1-0.2-0.1-0.4-0.2-0.7c0-0.2,0-0.3,0-0.5
	c0-0.2,0-0.3,0.1-0.5c0-0.2,0.1-0.4,0.1-0.6c0.1-0.1,0.1-0.3,0.2-0.4c0.1-0.1,0.2-0.3,0.3-0.4c0.1-0.1,0.1-0.1,0.2-0.2
	c0.1-0.1,0.1-0.1,0.2-0.2c0.1-0.1,0.2-0.1,0.3-0.2c0.1-0.1,0.2-0.1,0.3-0.2c0.2-0.1,0.3-0.1,0.5-0.2
	C374,109.9,374.3,109.9,374.7,109.9z M374.7,114.2c0.1,0,0.3,0,0.4-0.1c0.1-0.1,0.3-0.1,0.4-0.2c0.1-0.1,0.1-0.1,0.2-0.2
	c0.1-0.1,0.1-0.3,0.2-0.4c0-0.2,0-0.4-0.1-0.6c-0.1-0.2-0.2-0.3-0.3-0.4c-0.1-0.1-0.2-0.2-0.4-0.2c-0.3-0.1-0.5-0.1-0.8,0
	c-0.1,0.1-0.3,0.1-0.4,0.2c-0.1,0.1-0.1,0.1-0.2,0.2c-0.1,0.1-0.1,0.3-0.2,0.4c0,0.2,0,0.4,0.1,0.6c0.1,0.2,0.2,0.3,0.3,0.4
	c0.1,0.1,0.2,0.2,0.4,0.2C374.5,114.2,374.6,114.2,374.7,114.2z"/>
<path class="st8" d="M410.2,62c0.4,0,0.8,0,1.1,0.2c0.2,0.1,0.3,0.1,0.5,0.2c0.1,0.1,0.2,0.1,0.3,0.2c0.1,0.1,0.2,0.1,0.3,0.2
	c0.1,0.1,0.2,0.1,0.2,0.2c0.1,0.1,0.2,0.3,0.3,0.4c0.1,0.1,0.2,0.3,0.2,0.4c0.1,0.3,0.2,0.6,0.3,0.9c0,0.2,0,0.4,0.1,0.6
	c0,0.2,0,0.3-0.1,0.5c-0.1,0.2-0.1,0.4-0.2,0.6c-0.1,0.1-0.1,0.3-0.2,0.4c-0.1,0.2-0.2,0.4-0.3,0.6c-0.1,0.1-0.1,0.3-0.2,0.4
	c-0.1,0.1-0.1,0.3-0.2,0.4c-0.1,0.1-0.1,0.3-0.2,0.4c-0.1,0.1-0.2,0.3-0.2,0.4c-0.1,0.1-0.2,0.3-0.2,0.4c-0.1,0.1-0.2,0.3-0.2,0.4
	c-0.1,0.1-0.2,0.3-0.2,0.4c-0.1,0.1-0.2,0.3-0.3,0.4c-0.1,0.1-0.2,0.3-0.2,0.4c-0.1,0.1-0.2,0.3-0.3,0.4c-0.1,0.1-0.1,0.2-0.2,0.2
	c0,0,0,0,0,0c-0.1-0.1-0.2-0.3-0.3-0.4c-0.1-0.1-0.2-0.3-0.3-0.4c-0.1-0.1-0.2-0.3-0.2-0.4c-0.1-0.1-0.2-0.3-0.3-0.4
	c-0.1-0.1-0.2-0.3-0.2-0.4c-0.1-0.1-0.2-0.3-0.3-0.4c-0.1-0.1-0.2-0.3-0.2-0.4c-0.1-0.2-0.2-0.4-0.3-0.6c-0.1-0.1-0.1-0.3-0.2-0.4
	c-0.1-0.2-0.2-0.4-0.3-0.6c-0.1-0.1-0.1-0.3-0.2-0.4c-0.1-0.2-0.2-0.4-0.3-0.6c-0.1-0.2-0.1-0.4-0.2-0.7c0-0.2,0-0.3,0-0.5
	c0-0.2,0-0.3,0.1-0.5c0-0.2,0.1-0.4,0.1-0.6c0.1-0.1,0.1-0.3,0.2-0.4c0.1-0.1,0.2-0.3,0.3-0.4c0.1-0.1,0.1-0.1,0.2-0.2
	c0.1-0.1,0.1-0.1,0.2-0.2c0.1-0.1,0.2-0.1,0.3-0.2c0.1-0.1,0.2-0.1,0.3-0.2c0.2-0.1,0.3-0.1,0.5-0.2C409.5,62,409.9,62,410.2,62z
	 M410.3,66.3c0.1,0,0.3,0,0.4-0.1c0.1-0.1,0.3-0.1,0.4-0.2c0.1-0.1,0.1-0.1,0.2-0.2c0.1-0.1,0.1-0.3,0.2-0.4c0-0.2,0-0.4-0.1-0.6
	c-0.1-0.2-0.2-0.3-0.3-0.4c-0.1-0.1-0.2-0.2-0.4-0.2c-0.3-0.1-0.5-0.1-0.8,0c-0.1,0.1-0.3,0.1-0.4,0.2c-0.1,0.1-0.1,0.1-0.2,0.2
	c-0.1,0.1-0.1,0.3-0.2,0.4c0,0.2,0,0.4,0.1,0.6c0.1,0.2,0.2,0.3,0.3,0.4c0.1,0.1,0.2,0.2,0.4,0.2C410,66.3,410.2,66.3,410.3,66.3z"
	/>
<path class="st8" d="M501,204c0.4,0,0.8,0,1.1,0.2c0.2,0.1,0.3,0.1,0.5,0.2c0.1,0.1,0.2,0.1,0.3,0.2c0.1,0.1,0.2,0.1,0.3,0.2
	c0.1,0.1,0.2,0.1,0.2,0.2c0.1,0.1,0.2,0.3,0.3,0.4c0.1,0.1,0.2,0.3,0.2,0.4c0.1,0.3,0.2,0.6,0.3,0.9c0,0.2,0,0.4,0.1,0.6
	c0,0.2,0,0.3-0.1,0.5c-0.1,0.2-0.1,0.4-0.2,0.6c-0.1,0.1-0.1,0.3-0.2,0.4c-0.1,0.2-0.2,0.4-0.3,0.6c-0.1,0.1-0.1,0.3-0.2,0.4
	c-0.1,0.1-0.1,0.3-0.2,0.4s-0.1,0.3-0.2,0.4c-0.1,0.1-0.2,0.3-0.2,0.4c-0.1,0.1-0.2,0.3-0.2,0.4c-0.1,0.1-0.2,0.3-0.2,0.4
	c-0.1,0.1-0.2,0.3-0.2,0.4c-0.1,0.1-0.2,0.3-0.3,0.4c-0.1,0.1-0.2,0.3-0.2,0.4c-0.1,0.1-0.2,0.3-0.3,0.4c-0.1,0.1-0.1,0.2-0.2,0.2
	c0,0,0,0,0,0c-0.1-0.1-0.2-0.3-0.3-0.4c-0.1-0.1-0.2-0.3-0.3-0.4c-0.1-0.1-0.2-0.3-0.2-0.4c-0.1-0.1-0.2-0.3-0.3-0.4
	c-0.1-0.1-0.2-0.3-0.2-0.4c-0.1-0.1-0.2-0.3-0.3-0.4c-0.1-0.1-0.2-0.3-0.2-0.4c-0.1-0.2-0.2-0.4-0.3-0.6c-0.1-0.1-0.1-0.3-0.2-0.4
	c-0.1-0.2-0.2-0.4-0.3-0.6c-0.1-0.1-0.1-0.3-0.2-0.4c-0.1-0.2-0.2-0.4-0.3-0.6c-0.1-0.2-0.1-0.4-0.2-0.7c0-0.2,0-0.3,0-0.5
	c0-0.2,0-0.3,0.1-0.5c0-0.2,0.1-0.4,0.1-0.6c0.1-0.1,0.1-0.3,0.2-0.4c0.1-0.1,0.2-0.3,0.3-0.4c0.1-0.1,0.1-0.1,0.2-0.2
	c0.1-0.1,0.1-0.1,0.2-0.2c0.1-0.1,0.2-0.1,0.3-0.2c0.1-0.1,0.2-0.1,0.3-0.2c0.2-0.1,0.3-0.1,0.5-0.2C500.3,204.1,500.7,204,501,204z
	 M501.1,208.3c0.1,0,0.3,0,0.4-0.1c0.1-0.1,0.3-0.1,0.4-0.2c0.1-0.1,0.1-0.1,0.2-0.2c0.1-0.1,0.1-0.3,0.2-0.4c0-0.2,0-0.4-0.1-0.6
	c-0.1-0.2-0.2-0.3-0.3-0.4c-0.1-0.1-0.2-0.2-0.4-0.2c-0.3-0.1-0.5-0.1-0.8,0c-0.1,0.1-0.3,0.1-0.4,0.2c-0.1,0.1-0.1,0.1-0.2,0.2
	c-0.1,0.1-0.1,0.3-0.2,0.4c0,0.2,0,0.4,0.1,0.6c0.1,0.2,0.2,0.3,0.3,0.4c0.1,0.1,0.2,0.2,0.4,0.2
	C500.8,208.3,500.9,208.3,501.1,208.3z"/>
<path class="st8" d="M148.4,156.4c0.4,0,0.8,0,1.1,0.2c0.2,0.1,0.3,0.1,0.5,0.2c0.1,0.1,0.2,0.1,0.3,0.2c0.1,0.1,0.2,0.1,0.3,0.2
	c0.1,0.1,0.2,0.1,0.2,0.2c0.1,0.1,0.2,0.3,0.3,0.4c0.1,0.1,0.2,0.3,0.2,0.4c0.1,0.3,0.2,0.6,0.3,0.9c0,0.2,0,0.4,0.1,0.6
	c0,0.2,0,0.3-0.1,0.5c-0.1,0.2-0.1,0.4-0.2,0.6c-0.1,0.1-0.1,0.3-0.2,0.4c-0.1,0.2-0.2,0.4-0.3,0.6c-0.1,0.1-0.1,0.3-0.2,0.4
	c-0.1,0.1-0.1,0.3-0.2,0.4c-0.1,0.1-0.1,0.3-0.2,0.4c-0.1,0.1-0.2,0.3-0.2,0.4c-0.1,0.1-0.2,0.3-0.2,0.4c-0.1,0.1-0.2,0.3-0.2,0.4
	c-0.1,0.1-0.2,0.3-0.2,0.4c-0.1,0.1-0.2,0.3-0.3,0.4c-0.1,0.1-0.2,0.3-0.2,0.4c-0.1,0.1-0.2,0.3-0.3,0.4c-0.1,0.1-0.1,0.2-0.2,0.2
	c0,0,0,0,0,0c-0.1-0.1-0.2-0.3-0.3-0.4c-0.1-0.1-0.2-0.3-0.3-0.4c-0.1-0.1-0.2-0.3-0.2-0.4c-0.1-0.1-0.2-0.3-0.3-0.4
	c-0.1-0.1-0.2-0.3-0.2-0.4c-0.1-0.1-0.2-0.3-0.3-0.4c-0.1-0.1-0.2-0.3-0.2-0.4c-0.1-0.2-0.2-0.4-0.3-0.6c-0.1-0.1-0.1-0.3-0.2-0.4
	c-0.1-0.2-0.2-0.4-0.3-0.6c-0.1-0.1-0.1-0.3-0.2-0.4c-0.1-0.2-0.2-0.4-0.3-0.6c-0.1-0.2-0.1-0.4-0.2-0.7c0-0.2,0-0.3,0-0.5
	c0-0.2,0-0.3,0.1-0.5c0-0.2,0.1-0.4,0.1-0.6c0.1-0.1,0.1-0.3,0.2-0.4c0.1-0.1,0.2-0.3,0.3-0.4c0.1-0.1,0.1-0.1,0.2-0.2
	c0.1-0.1,0.1-0.1,0.2-0.2c0.1-0.1,0.2-0.1,0.3-0.2c0.1-0.1,0.2-0.1,0.3-0.2c0.2-0.1,0.3-0.1,0.5-0.2
	C147.7,156.5,148,156.4,148.4,156.4z M148.4,160.7c0.1,0,0.3,0,0.4-0.1c0.1-0.1,0.3-0.1,0.4-0.2c0.1-0.1,0.1-0.1,0.2-0.2
	c0.1-0.1,0.1-0.3,0.2-0.4c0-0.2,0-0.4-0.1-0.6c-0.1-0.2-0.2-0.3-0.3-0.4c-0.1-0.1-0.2-0.2-0.4-0.2c-0.3-0.1-0.5-0.1-0.8,0
	c-0.1,0.1-0.3,0.1-0.4,0.2c-0.1,0.1-0.1,0.1-0.2,0.2c-0.1,0.1-0.1,0.3-0.2,0.4c0,0.2,0,0.4,0.1,0.6c0.1,0.2,0.2,0.3,0.3,0.4
	c0.1,0.1,0.2,0.2,0.4,0.2C148.2,160.7,148.3,160.7,148.4,160.7z"/>
<path class="st8" d="M128.8,89.6c0.4,0,0.8,0,1.1,0.2c0.2,0.1,0.3,0.1,0.5,0.2c0.1,0.1,0.2,0.1,0.3,0.2c0.1,0.1,0.2,0.1,0.3,0.2
	c0.1,0.1,0.2,0.1,0.2,0.2c0.1,0.1,0.2,0.3,0.3,0.4c0.1,0.1,0.2,0.3,0.2,0.4c0.1,0.3,0.2,0.6,0.3,0.9c0,0.2,0,0.4,0.1,0.6
	c0,0.2,0,0.3-0.1,0.5c-0.1,0.2-0.1,0.4-0.2,0.6c-0.1,0.1-0.1,0.3-0.2,0.4c-0.1,0.2-0.2,0.4-0.3,0.6c-0.1,0.1-0.1,0.3-0.2,0.4
	c-0.1,0.1-0.1,0.3-0.2,0.4c-0.1,0.1-0.1,0.3-0.2,0.4c-0.1,0.1-0.2,0.3-0.2,0.4c-0.1,0.1-0.2,0.3-0.2,0.4c-0.1,0.1-0.2,0.3-0.2,0.4
	c-0.1,0.1-0.2,0.3-0.2,0.4c-0.1,0.1-0.2,0.3-0.3,0.4c-0.1,0.1-0.2,0.3-0.2,0.4c-0.1,0.1-0.2,0.3-0.3,0.4c-0.1,0.1-0.1,0.2-0.2,0.2
	c0,0,0,0,0,0c-0.1-0.1-0.2-0.3-0.3-0.4c-0.1-0.1-0.2-0.3-0.3-0.4c-0.1-0.1-0.2-0.3-0.2-0.4c-0.1-0.1-0.2-0.3-0.3-0.4
	c-0.1-0.1-0.2-0.3-0.2-0.4c-0.1-0.1-0.2-0.3-0.3-0.4c-0.1-0.1-0.2-0.3-0.2-0.4c-0.1-0.2-0.2-0.4-0.3-0.6c-0.1-0.1-0.1-0.3-0.2-0.4
	c-0.1-0.2-0.2-0.4-0.3-0.6c-0.1-0.1-0.1-0.3-0.2-0.4c-0.1-0.2-0.2-0.4-0.3-0.6c-0.1-0.2-0.1-0.4-0.2-0.7c0-0.2,0-0.3,0-0.5
	c0-0.2,0-0.3,0.1-0.5c0-0.2,0.1-0.4,0.1-0.6c0.1-0.1,0.1-0.3,0.2-0.4c0.1-0.1,0.2-0.3,0.3-0.4c0.1-0.1,0.1-0.1,0.2-0.2
	c0.1-0.1,0.1-0.1,0.2-0.2c0.1-0.1,0.2-0.1,0.3-0.2c0.1-0.1,0.2-0.1,0.3-0.2c0.2-0.1,0.3-0.1,0.5-0.2
	C128.1,89.7,128.4,89.6,128.8,89.6z M128.8,94c0.1,0,0.3,0,0.4-0.1c0.1-0.1,0.3-0.1,0.4-0.2c0.1-0.1,0.1-0.1,0.2-0.2
	c0.1-0.1,0.1-0.3,0.2-0.4c0-0.2,0-0.4-0.1-0.6c-0.1-0.2-0.2-0.3-0.3-0.4c-0.1-0.1-0.2-0.2-0.4-0.2c-0.3-0.1-0.5-0.1-0.8,0
	c-0.1,0.1-0.3,0.1-0.4,0.2c-0.1,0.1-0.1,0.1-0.2,0.2c-0.1,0.1-0.1,0.3-0.2,0.4c0,0.2,0,0.4,0.1,0.6c0.1,0.2,0.2,0.3,0.3,0.4
	c0.1,0.1,0.2,0.2,0.4,0.2C128.6,93.9,128.7,94,128.8,94z"/>
<path class="st8" d="M31.7,54c0.4,0,0.8,0,1.1,0.2c0.2,0.1,0.3,0.1,0.5,0.2c0.1,0.1,0.2,0.1,0.3,0.2c0.1,0.1,0.2,0.1,0.3,0.2
	c0.1,0.1,0.2,0.1,0.2,0.2c0.1,0.1,0.2,0.3,0.3,0.4c0.1,0.1,0.2,0.3,0.2,0.4c0.1,0.3,0.2,0.6,0.3,0.9c0,0.2,0,0.4,0.1,0.6
	c0,0.2,0,0.3-0.1,0.5c-0.1,0.2-0.1,0.4-0.2,0.6c-0.1,0.1-0.1,0.3-0.2,0.4c-0.1,0.2-0.2,0.4-0.3,0.6c-0.1,0.1-0.1,0.3-0.2,0.4
	c-0.1,0.1-0.1,0.3-0.2,0.4c-0.1,0.1-0.1,0.3-0.2,0.4c-0.1,0.1-0.2,0.3-0.2,0.4c-0.1,0.1-0.2,0.3-0.2,0.4c-0.1,0.1-0.2,0.3-0.2,0.4
	c-0.1,0.1-0.2,0.3-0.2,0.4c-0.1,0.1-0.2,0.3-0.3,0.4c-0.1,0.1-0.2,0.3-0.2,0.4c-0.1,0.1-0.2,0.3-0.3,0.4c-0.1,0.1-0.1,0.2-0.2,0.2
	c0,0,0,0,0,0c-0.1-0.1-0.2-0.3-0.3-0.4c-0.1-0.1-0.2-0.3-0.3-0.4c-0.1-0.1-0.2-0.3-0.2-0.4c-0.1-0.1-0.2-0.3-0.3-0.4
	c-0.1-0.1-0.2-0.3-0.2-0.4c-0.1-0.1-0.2-0.3-0.3-0.4c-0.1-0.1-0.2-0.3-0.2-0.4c-0.1-0.2-0.2-0.4-0.3-0.6c-0.1-0.1-0.1-0.3-0.2-0.4
	c-0.1-0.2-0.2-0.4-0.3-0.6C29.1,59.2,29,59.1,29,59c-0.1-0.2-0.2-0.4-0.3-0.6c-0.1-0.2-0.1-0.4-0.2-0.7c0-0.2,0-0.3,0-0.5
	c0-0.2,0-0.3,0.1-0.5c0-0.2,0.1-0.4,0.1-0.6c0.1-0.1,0.1-0.3,0.2-0.4c0.1-0.1,0.2-0.3,0.3-0.4c0.1-0.1,0.1-0.1,0.2-0.2
	c0.1-0.1,0.1-0.1,0.2-0.2c0.1-0.1,0.2-0.1,0.3-0.2c0.1-0.1,0.2-0.1,0.3-0.2c0.2-0.1,0.3-0.1,0.5-0.2C31,54.1,31.4,54,31.7,54z
	 M31.8,58.4c0.1,0,0.3,0,0.4-0.1c0.1-0.1,0.3-0.1,0.4-0.2c0.1-0.1,0.1-0.1,0.2-0.2c0.1-0.1,0.1-0.3,0.2-0.4c0-0.2,0-0.4-0.1-0.6
	c-0.1-0.2-0.2-0.3-0.3-0.4c-0.1-0.1-0.2-0.2-0.4-0.2c-0.3-0.1-0.5-0.1-0.8,0c-0.1,0.1-0.3,0.1-0.4,0.2c-0.1,0.1-0.1,0.1-0.2,0.2
	c-0.1,0.1-0.1,0.3-0.2,0.4c0,0.2,0,0.4,0.1,0.6c0.1,0.2,0.2,0.3,0.3,0.4c0.1,0.1,0.2,0.2,0.4,0.2C31.5,58.3,31.7,58.4,31.8,58.4z"/>
<path class="st8" d="M123.1,117.1c0.4,0,0.8,0,1.1,0.2c0.2,0.1,0.3,0.1,0.5,0.2c0.1,0.1,0.2,0.1,0.3,0.2c0.1,0.1,0.2,0.1,0.3,0.2
	c0.1,0.1,0.2,0.1,0.2,0.2c0.1,0.1,0.2,0.3,0.3,0.4c0.1,0.1,0.2,0.3,0.2,0.4c0.1,0.3,0.2,0.6,0.3,0.9c0,0.2,0,0.4,0.1,0.6
	c0,0.2,0,0.3-0.1,0.5c-0.1,0.2-0.1,0.4-0.2,0.6c-0.1,0.1-0.1,0.3-0.2,0.4c-0.1,0.2-0.2,0.4-0.3,0.6c-0.1,0.1-0.1,0.3-0.2,0.4
	c-0.1,0.1-0.1,0.3-0.2,0.4c-0.1,0.1-0.1,0.3-0.2,0.4c-0.1,0.1-0.2,0.3-0.2,0.4c-0.1,0.1-0.2,0.3-0.2,0.4c-0.1,0.1-0.2,0.3-0.2,0.4
	c-0.1,0.1-0.2,0.3-0.2,0.4c-0.1,0.1-0.2,0.3-0.3,0.4c-0.1,0.1-0.2,0.3-0.2,0.4c-0.1,0.1-0.2,0.3-0.3,0.4c-0.1,0.1-0.1,0.2-0.2,0.2
	c0,0,0,0,0,0c-0.1-0.1-0.2-0.3-0.3-0.4c-0.1-0.1-0.2-0.3-0.3-0.4c-0.1-0.1-0.2-0.3-0.2-0.4c-0.1-0.1-0.2-0.3-0.3-0.4
	c-0.1-0.1-0.2-0.3-0.2-0.4c-0.1-0.1-0.2-0.3-0.3-0.4c-0.1-0.1-0.2-0.3-0.2-0.4c-0.1-0.2-0.2-0.4-0.3-0.6c-0.1-0.1-0.1-0.3-0.2-0.4
	c-0.1-0.2-0.2-0.4-0.3-0.6c-0.1-0.1-0.1-0.3-0.2-0.4c-0.1-0.2-0.2-0.4-0.3-0.6c-0.1-0.2-0.1-0.4-0.2-0.7c0-0.2,0-0.3,0-0.5
	c0-0.2,0-0.3,0.1-0.5c0-0.2,0.1-0.4,0.1-0.6c0.1-0.1,0.1-0.3,0.2-0.4c0.1-0.1,0.2-0.3,0.3-0.4c0.1-0.1,0.1-0.1,0.2-0.2
	c0.1-0.1,0.1-0.1,0.2-0.2c0.1-0.1,0.2-0.1,0.3-0.2c0.1-0.1,0.2-0.1,0.3-0.2c0.2-0.1,0.3-0.1,0.5-0.2
	C122.4,117.2,122.8,117.1,123.1,117.1z M123.1,121.5c0.1,0,0.3,0,0.4-0.1c0.1-0.1,0.3-0.1,0.4-0.2c0.1-0.1,0.1-0.1,0.2-0.2
	c0.1-0.1,0.1-0.3,0.2-0.4c0-0.2,0-0.4-0.1-0.6c-0.1-0.2-0.2-0.3-0.3-0.4c-0.1-0.1-0.2-0.2-0.4-0.2c-0.3-0.1-0.5-0.1-0.8,0
	c-0.1,0.1-0.3,0.1-0.4,0.2c-0.1,0.1-0.1,0.1-0.2,0.2c-0.1,0.1-0.1,0.3-0.2,0.4c0,0.2,0,0.4,0.1,0.6c0.1,0.2,0.2,0.3,0.3,0.4
	c0.1,0.1,0.2,0.2,0.4,0.2C122.9,121.4,123,121.5,123.1,121.5z"/>
<path class="st8" d="M270.4,141.6c0.4,0,0.8,0,1.1,0.2c0.2,0.1,0.3,0.1,0.5,0.2c0.1,0.1,0.2,0.1,0.3,0.2c0.1,0.1,0.2,0.1,0.3,0.2
	c0.1,0.1,0.2,0.1,0.2,0.2c0.1,0.1,0.2,0.3,0.3,0.4c0.1,0.1,0.2,0.3,0.2,0.4c0.1,0.3,0.2,0.6,0.3,0.9c0,0.2,0,0.4,0.1,0.6
	c0,0.2,0,0.3-0.1,0.5c-0.1,0.2-0.1,0.4-0.2,0.6c-0.1,0.1-0.1,0.3-0.2,0.4c-0.1,0.2-0.2,0.4-0.3,0.6c-0.1,0.1-0.1,0.3-0.2,0.4
	c-0.1,0.1-0.1,0.3-0.2,0.4c-0.1,0.1-0.1,0.3-0.2,0.4c-0.1,0.1-0.2,0.3-0.2,0.4c-0.1,0.1-0.2,0.3-0.2,0.4c-0.1,0.1-0.2,0.3-0.2,0.4
	c-0.1,0.1-0.2,0.3-0.2,0.4c-0.1,0.1-0.2,0.3-0.3,0.4c-0.1,0.1-0.2,0.3-0.2,0.4c-0.1,0.1-0.2,0.3-0.3,0.4c-0.1,0.1-0.1,0.2-0.2,0.2
	c0,0,0,0,0,0c-0.1-0.1-0.2-0.3-0.3-0.4c-0.1-0.1-0.2-0.3-0.3-0.4c-0.1-0.1-0.2-0.3-0.2-0.4c-0.1-0.1-0.2-0.3-0.3-0.4
	c-0.1-0.1-0.2-0.3-0.2-0.4c-0.1-0.1-0.2-0.3-0.3-0.4c-0.1-0.1-0.2-0.3-0.2-0.4c-0.1-0.2-0.2-0.4-0.3-0.6c-0.1-0.1-0.1-0.3-0.2-0.4
	c-0.1-0.2-0.2-0.4-0.3-0.6c-0.1-0.1-0.1-0.3-0.2-0.4c-0.1-0.2-0.2-0.4-0.3-0.6c-0.1-0.2-0.1-0.4-0.2-0.7c0-0.2,0-0.3,0-0.5
	c0-0.2,0-0.3,0.1-0.5c0-0.2,0.1-0.4,0.1-0.6c0.1-0.1,0.1-0.3,0.2-0.4c0.1-0.1,0.2-0.3,0.3-0.4c0.1-0.1,0.1-0.1,0.2-0.2
	c0.1-0.1,0.1-0.1,0.2-0.2c0.1-0.1,0.2-0.1,0.3-0.2c0.1-0.1,0.2-0.1,0.3-0.2c0.2-0.1,0.3-0.1,0.5-0.2
	C269.7,141.6,270.1,141.6,270.4,141.6z M270.5,145.9c0.1,0,0.3,0,0.4-0.1c0.1-0.1,0.3-0.1,0.4-0.2c0.1-0.1,0.1-0.1,0.2-0.2
	c0.1-0.1,0.1-0.3,0.2-0.4c0-0.2,0-0.4-0.1-0.6c-0.1-0.2-0.2-0.3-0.3-0.4c-0.1-0.1-0.2-0.2-0.4-0.2c-0.3-0.1-0.5-0.1-0.8,0
	c-0.1,0.1-0.3,0.1-0.4,0.2c-0.1,0.1-0.1,0.1-0.2,0.2c-0.1,0.1-0.1,0.3-0.2,0.4c0,0.2,0,0.4,0.1,0.6c0.1,0.2,0.2,0.3,0.3,0.4
	c0.1,0.1,0.2,0.2,0.4,0.2C270.2,145.9,270.3,145.9,270.5,145.9z"/>
<path class="st8" d="M118.6,66.9c0.4,0,0.8,0,1.1,0.2c0.2,0.1,0.3,0.1,0.5,0.2c0.1,0.1,0.2,0.1,0.3,0.2c0.1,0.1,0.2,0.1,0.3,0.2
	c0.1,0.1,0.2,0.1,0.2,0.2c0.1,0.1,0.2,0.3,0.3,0.4c0.1,0.1,0.2,0.3,0.2,0.4c0.1,0.3,0.2,0.6,0.3,0.9c0,0.2,0,0.4,0.1,0.6
	c0,0.2,0,0.3-0.1,0.5c-0.1,0.2-0.1,0.4-0.2,0.6c-0.1,0.1-0.1,0.3-0.2,0.4c-0.1,0.2-0.2,0.4-0.3,0.6c-0.1,0.1-0.1,0.3-0.2,0.4
	c-0.1,0.1-0.1,0.3-0.2,0.4c-0.1,0.1-0.1,0.3-0.2,0.4c-0.1,0.1-0.2,0.3-0.2,0.4c-0.1,0.1-0.2,0.3-0.2,0.4c-0.1,0.1-0.2,0.3-0.2,0.4
	c-0.1,0.1-0.2,0.3-0.2,0.4c-0.1,0.1-0.2,0.3-0.3,0.4c-0.1,0.1-0.2,0.3-0.2,0.4c-0.1,0.1-0.2,0.3-0.3,0.4c-0.1,0.1-0.1,0.2-0.2,0.2
	c0,0,0,0,0,0c-0.1-0.1-0.2-0.3-0.3-0.4c-0.1-0.1-0.2-0.3-0.3-0.4c-0.1-0.1-0.2-0.3-0.2-0.4c-0.1-0.1-0.2-0.3-0.3-0.4
	c-0.1-0.1-0.2-0.3-0.2-0.4c-0.1-0.1-0.2-0.3-0.3-0.4c-0.1-0.1-0.2-0.3-0.2-0.4c-0.1-0.2-0.2-0.4-0.3-0.6c-0.1-0.1-0.1-0.3-0.2-0.4
	c-0.1-0.2-0.2-0.4-0.3-0.6c-0.1-0.1-0.1-0.3-0.2-0.4c-0.1-0.2-0.2-0.4-0.3-0.6c-0.1-0.2-0.1-0.4-0.2-0.7c0-0.2,0-0.3,0-0.5
	c0-0.2,0-0.3,0.1-0.5c0-0.2,0.1-0.4,0.1-0.6c0.1-0.1,0.1-0.3,0.2-0.4c0.1-0.1,0.2-0.3,0.3-0.4c0.1-0.1,0.1-0.1,0.2-0.2
	c0.1-0.1,0.1-0.1,0.2-0.2c0.1-0.1,0.2-0.1,0.3-0.2c0.1-0.1,0.2-0.1,0.3-0.2c0.2-0.1,0.3-0.1,0.5-0.2
	C117.9,66.9,118.3,66.9,118.6,66.9z M118.7,71.2c0.1,0,0.3,0,0.4-0.1c0.1-0.1,0.3-0.1,0.4-0.2c0.1-0.1,0.1-0.1,0.2-0.2
	c0.1-0.1,0.1-0.3,0.2-0.4c0-0.2,0-0.4-0.1-0.6c-0.1-0.2-0.2-0.3-0.3-0.4c-0.1-0.1-0.2-0.2-0.4-0.2c-0.3-0.1-0.5-0.1-0.8,0
	c-0.1,0.1-0.3,0.1-0.4,0.2c-0.1,0.1-0.1,0.1-0.2,0.2c-0.1,0.1-0.1,0.3-0.2,0.4c0,0.2,0,0.4,0.1,0.6c0.1,0.2,0.2,0.3,0.3,0.4
	c0.1,0.1,0.2,0.2,0.4,0.2C118.4,71.2,118.6,71.2,118.7,71.2z"/>
<path class="st8" d="M323.3,76.9c0.4,0,0.8,0,1.1,0.2c0.2,0.1,0.3,0.1,0.5,0.2c0.1,0.1,0.2,0.1,0.3,0.2c0.1,0.1,0.2,0.1,0.3,0.2
	c0.1,0.1,0.2,0.1,0.2,0.2c0.1,0.1,0.2,0.3,0.3,0.4c0.1,0.1,0.2,0.3,0.2,0.4c0.1,0.3,0.2,0.6,0.3,0.9c0,0.2,0,0.4,0.1,0.6
	c0,0.2,0,0.3-0.1,0.5c-0.1,0.2-0.1,0.4-0.2,0.6c-0.1,0.1-0.1,0.3-0.2,0.4c-0.1,0.2-0.2,0.4-0.3,0.6c-0.1,0.1-0.1,0.3-0.2,0.4
	c-0.1,0.1-0.1,0.3-0.2,0.4c-0.1,0.1-0.1,0.3-0.2,0.4c-0.1,0.1-0.2,0.3-0.2,0.4c-0.1,0.1-0.2,0.3-0.2,0.4c-0.1,0.1-0.2,0.3-0.2,0.4
	c-0.1,0.1-0.2,0.3-0.2,0.4c-0.1,0.1-0.2,0.3-0.3,0.4c-0.1,0.1-0.2,0.3-0.2,0.4c-0.1,0.1-0.2,0.3-0.3,0.4c-0.1,0.1-0.1,0.2-0.2,0.2
	c0,0,0,0,0,0c-0.1-0.1-0.2-0.3-0.3-0.4c-0.1-0.1-0.2-0.3-0.3-0.4c-0.1-0.1-0.2-0.3-0.2-0.4c-0.1-0.1-0.2-0.3-0.3-0.4
	c-0.1-0.1-0.2-0.3-0.2-0.4c-0.1-0.1-0.2-0.3-0.3-0.4c-0.1-0.1-0.2-0.3-0.2-0.4c-0.1-0.2-0.2-0.4-0.3-0.6c-0.1-0.1-0.1-0.3-0.2-0.4
	c-0.1-0.2-0.2-0.4-0.3-0.6c-0.1-0.1-0.1-0.3-0.2-0.4c-0.1-0.2-0.2-0.4-0.3-0.6c-0.1-0.2-0.1-0.4-0.2-0.7c0-0.2,0-0.3,0-0.5
	c0-0.2,0-0.3,0.1-0.5c0-0.2,0.1-0.4,0.1-0.6c0.1-0.1,0.1-0.3,0.2-0.4c0.1-0.1,0.2-0.3,0.3-0.4c0.1-0.1,0.1-0.1,0.2-0.2
	c0.1-0.1,0.1-0.1,0.2-0.2c0.1-0.1,0.2-0.1,0.3-0.2c0.1-0.1,0.2-0.1,0.3-0.2c0.2-0.1,0.3-0.1,0.5-0.2C322.6,77,322.9,76.9,323.3,76.9
	z M323.3,81.3c0.1,0,0.3,0,0.4-0.1c0.1-0.1,0.3-0.1,0.4-0.2c0.1-0.1,0.1-0.1,0.2-0.2c0.1-0.1,0.1-0.3,0.2-0.4c0-0.2,0-0.4-0.1-0.6
	c-0.1-0.2-0.2-0.3-0.3-0.4c-0.1-0.1-0.2-0.2-0.4-0.2c-0.3-0.1-0.5-0.1-0.8,0c-0.1,0.1-0.3,0.1-0.4,0.2c-0.1,0.1-0.1,0.1-0.2,0.2
	c-0.1,0.1-0.1,0.3-0.2,0.4c0,0.2,0,0.4,0.1,0.6c0.1,0.2,0.2,0.3,0.3,0.4c0.1,0.1,0.2,0.2,0.4,0.2C323.1,81.2,323.2,81.3,323.3,81.3z
	"/>
</svg>
